<?xml version="1.0" encoding="UTF-8"?> <svg xmlns="http://www.w3.org/2000/svg" width="148" height="28" viewBox="0 0 148 28" fill="none"><g clip-path="url(#clip0_198_143)"><path d="M0 0H10.8503C12.917 0 14.467 0.529412 15.6152 1.41177C16.8782 2.47059 17.5671 4 17.5671 5.88235C17.5671 8.05882 16.706 9.41177 14.9837 10.2353V10.3529C17.2801 11.1176 18.6005 13.2353 18.6005 15.7647C18.6005 18.1765 17.6819 20.0588 16.1893 21.2353C14.9263 22.1765 13.3188 22.5882 11.1373 22.5882H0V0ZM9.7595 8.82353C10.9077 8.82353 11.7688 8.17647 11.7688 6.82353C11.7688 5.52941 10.9077 4.88235 9.70209 4.88235H5.97052V8.76471H9.7595V8.82353ZM10.2762 17.5882C11.5966 17.5882 12.5725 16.7647 12.5725 15.2941C12.5725 13.7059 11.5392 13 10.2762 13H6.02793V17.6471H10.2762V17.5882Z" fill="black"></path><path d="M19.5764 0H25.2599V22.6471H19.5764V0Z" fill="black"></path><path d="M26.4081 14.5883C26.4081 9.4706 29.623 6.05884 34.6175 6.05884C39.6121 6.05884 42.7696 9.52943 42.7696 14.5883C42.7696 19.7059 39.6121 23.1177 34.6175 23.1177C29.623 23.1177 26.4081 19.7059 26.4081 14.5883ZM37.0861 14.5883C37.0861 11.7647 36.225 10 34.5027 10C32.7805 10 31.9767 11.7647 31.9767 14.5883C31.9767 17.4118 32.7805 19.2353 34.5027 19.2353C36.225 19.1765 37.0861 17.4118 37.0861 14.5883Z" fill="black"></path><path d="M43.4011 14.5883C43.4011 9.4706 46.616 6.05884 51.6106 6.05884C56.6052 6.05884 59.7052 9.4706 59.7052 14.5883C59.7052 19.7059 56.5477 23.1177 51.5532 23.1177C46.616 23.1177 43.4011 19.7059 43.4011 14.5883ZM54.0792 14.5883C54.0792 11.7647 53.218 10 51.4958 10C49.7735 10 48.9698 11.7647 48.9698 14.5883C48.9698 17.4118 49.7735 19.2353 51.4958 19.2353C53.218 19.1765 54.0792 17.4118 54.0792 14.5883Z" fill="black"></path><path d="M60.8534 6.47059H66.135V8.88235H66.2498C67.2832 7 68.7184 6 71.0148 6C73.0241 6 74.5167 7 75.263 8.76471H75.3778C76.6408 6.64706 78.3057 6 80.2576 6C83.9318 6 85.4818 8.76471 85.4818 12.4706V22.5882H79.9705V13.4706C79.9705 11.8235 79.4539 10.7647 78.076 10.7647C76.6982 10.7647 76.0093 12.0588 76.0093 13.8235V22.5882H70.4981V13.4706C70.4981 11.8235 69.9814 10.7647 68.6036 10.7647C67.2258 10.7647 66.5369 12.0588 66.5369 13.8235V22.5882H60.8534V6.47059Z" fill="black"></path><path d="M92.4282 20.4706H92.3708V22.5882H87.0892V0H92.6005V8.11765H92.7153C93.7487 6.70588 95.1839 5.94118 97.1932 5.94118C101.154 5.94118 103.451 9.58824 103.451 14.4706C103.451 19.9412 100.982 23.1176 96.8487 23.1176C95.1265 23.1176 93.3468 22.2941 92.4282 20.4706ZM97.7673 14.4118C97.7673 11.8235 96.8487 10.1176 95.1839 10.1176C93.4616 10.1176 92.4282 11.8235 92.4282 14.4118C92.4282 17 93.519 18.7059 95.1839 18.7059C96.8487 18.7059 97.7673 17.0588 97.7673 14.4118Z" fill="black"></path><path d="M104.082 14.5294C104.082 9.47059 107.355 6 112.062 6C114.416 6 116.195 6.76471 117.573 8.11765C119.41 9.94118 120.214 12.7647 120.157 16.0588H109.593C109.823 18.0588 110.742 19.1176 112.406 19.1176C113.382 19.1176 114.244 18.6471 114.588 17.5882H119.927C119.009 21.2941 116.195 23.1176 112.234 23.1176C107.355 23.0588 104.082 19.6471 104.082 14.5294ZM109.593 12.8235H114.645C114.531 10.8824 113.497 9.88235 112.177 9.88235C110.627 9.82353 109.766 10.9412 109.593 12.8235Z" fill="black"></path><path d="M126.414 9.23532H126.529C127.677 7.00003 129.17 6.11768 131.064 6.11768C131.524 6.11768 131.811 6.1765 131.983 6.29415V11.2353H131.868C128.596 10.6471 126.701 12.2353 126.701 15.8824V22.6471H121.133V6.47062H126.414V9.23532Z" fill="black"></path><path d="M132.557 22.647H137.896C138.126 23.3529 138.815 24 140.135 24C141.915 24 142.546 22.8823 142.546 21.1765V20H142.431C141.57 21.0588 140.365 21.8235 138.642 21.8235C135.255 21.8235 132.27 19.2353 132.27 14.1765C132.27 9.5294 134.681 5.94116 138.355 5.94116C140.479 5.94116 141.742 6.82352 142.604 8.17646H142.718V6.41175H148V20.4118C148 23 147.139 25 145.818 26.1765C144.441 27.4118 142.489 27.9412 140.25 27.9412C136.002 28 133.074 26.2353 132.557 22.647ZM142.776 13.9412C142.776 11.9412 141.857 10.2941 140.25 10.2941C138.7 10.2941 137.724 11.7059 137.724 13.9412C137.724 16.1176 138.7 17.647 140.25 17.647C141.8 17.647 142.776 16.0588 142.776 13.9412Z" fill="black"></path></g><defs><clipPath id="clip0_198_143"><rect width="148" height="28" fill="white"></rect></clipPath></defs></svg> 