<?xml version="1.0" encoding="UTF-8"?> <svg xmlns="http://www.w3.org/2000/svg" width="121" height="38" viewBox="0 0 121 38" fill="none"><g clip-path="url(#clip0_198_140)"><path fill-rule="evenodd" clip-rule="evenodd" d="M9.37926 38H12.194V22.8H9.37926V38ZM19.6972 37.772H22.2182V28.1818L32.8298 38V23.028H30.3158V32.4544L19.6972 22.8V37.772ZM38.5849 34.0908C39.957 35.1714 41.604 35.796 43.3697 35.796C45.0895 35.796 46.296 35.1975 46.296 33.8758C46.296 32.7239 45.5265 32.2727 44.1791 31.768L41.9976 31.0021C39.9864 30.2801 38.4569 29.2256 38.4569 26.8019C38.4569 24.2096 40.7723 22.8 43.5412 22.8C45.2376 22.8 46.7835 23.2311 47.9912 23.9946V26.5656C46.7354 25.6274 45.3609 24.9814 43.5952 24.9814C42.0751 24.9814 40.9391 25.555 40.9391 26.7508C40.9391 27.8314 41.6522 28.2637 42.908 28.6983L45.3386 29.5604C47.694 30.3976 48.7747 31.6956 48.7747 33.8307C48.7747 36.5168 46.437 38 43.3697 38C41.3538 38 39.6398 37.43 38.5849 36.7104V34.0908ZM55.3416 38H58.1552V22.8H55.3416V38ZM71.3548 35.6998C74.5266 35.6998 76.2218 33.6431 76.2218 30.3964C76.2218 27.1261 74.5254 25.0764 71.3548 25.0764H68.2182V35.6998H71.3548ZM65.6572 22.8H71.4487C75.9069 22.8 78.7898 25.7687 78.7898 30.3964C78.7898 35.0277 75.9069 38 71.4487 38H65.6572V22.8ZM92.861 22.8V25.0764H86.051V28.7339H92.1585V30.9842H86.0498V35.6998H92.861V38H83.4806V22.8H92.861ZM102.849 29.6828H105.641C107.294 29.6828 108.226 28.766 108.226 27.3564C108.226 25.9469 107.294 25.0289 105.641 25.0289H102.849V29.6828ZM102.849 31.8321V38H100.364V22.8H105.688C108.724 22.8 110.688 24.3806 110.688 27.3564C110.688 29.9013 109.598 31.3631 107.275 31.7383L112.558 38H109.732L104.617 31.8333H102.85L102.849 31.8321ZM8.39599 7.82563C9.49674 7.41831 10.3543 6.19637 10.3543 4.51606C10.3543 1.71594 8.39599 0.264812 5.26291 0.264812H0V15.8959H5.75161C8.88469 15.8959 10.843 14.3426 10.843 11.4154C10.843 9.76006 9.8151 8.30894 8.39599 7.82563ZM2.47169 6.83288V2.55669H5.23942C6.97806 2.55669 7.90729 3.19319 7.90729 4.66925C7.90729 6.14531 6.97688 6.83288 5.23942 6.83288H2.47169ZM2.47169 9.02262H5.70227C7.41742 9.02262 8.34665 9.88713 8.34665 11.3133C8.34665 12.7134 7.41624 13.6052 5.70345 13.6052H2.47286V9.02144L2.47169 9.02262ZM22.3263 16.15C25.9245 16.15 28.3481 13.9602 28.3481 9.68406V0.264812H25.8024V9.37769C25.8024 12.3821 24.5783 13.7833 22.3263 13.7833C20.0743 13.7833 18.8513 12.3821 18.8513 9.37769V0.264812H16.3056V9.65794C16.3056 13.9602 18.7526 16.15 22.3263 16.15ZM34.3417 14.7749C35.3943 15.5396 37.1082 16.15 39.1147 16.15C42.175 16.15 44.4998 14.5706 44.4998 11.7206C44.4998 9.45487 43.4237 8.07975 41.073 7.18913L38.6507 6.27238C37.4019 5.81519 36.6924 5.35681 36.6924 4.21088C36.6924 2.93788 37.8178 2.3275 39.3356 2.3275C41.0977 2.3275 42.4687 3.01388 43.7174 4.00781V1.2825C42.518 0.469063 40.9755 0.0106875 39.2862 0.0106875C36.5209 0.0106875 34.2195 1.51287 34.2195 4.26194C34.2195 6.83287 35.7373 7.95269 37.7438 8.71625L39.923 9.53088C41.2692 10.0653 42.0281 10.5498 42.0281 11.7717C42.0281 13.1718 40.8287 13.8083 39.1147 13.8083C37.3526 13.8083 35.7126 13.1456 34.3417 12.0009V14.7749ZM53.596 0.264812H51.0514V15.8947H53.596V0.264812ZM60.8583 15.8757H63.3112V5.70713L73.635 16.1179V0.241062H71.1891V10.2362L60.8583 0V15.8757ZM89.5423 0.268375V2.60894H82.9332V6.37094H88.8598V8.68538H82.9332V13.5339H89.5423V15.8994H80.438V0.268375H89.5423ZM95.469 14.7642C96.5216 15.5289 98.2344 16.1393 100.242 16.1393C103.301 16.1393 105.627 14.5611 105.627 11.7099C105.627 9.44419 104.55 8.07025 102.2 7.17844L99.7768 6.26288C98.5281 5.8045 97.8185 5.34613 97.8185 4.20019C97.8185 2.92719 98.9439 2.31681 100.462 2.31681C102.224 2.31681 103.595 3.00437 104.844 3.99712V1.273C103.644 0.458375 102.102 0 100.412 0C97.647 0 95.3456 1.50219 95.3456 4.25125C95.3456 6.82219 96.8634 7.942 98.8699 8.70556L101.049 9.52019C102.395 10.0546 103.154 10.5391 103.154 11.761C103.154 13.1611 101.956 13.7976 100.241 13.7976C98.4787 13.7976 96.8388 13.1361 95.469 11.9902V14.7642ZM110.842 14.7642C111.894 15.5289 113.608 16.1393 115.615 16.1393C118.675 16.1393 121 14.5611 121 11.7099C121 9.44419 119.923 8.07025 117.573 7.17844L115.15 6.26288C113.902 5.8045 113.191 5.34613 113.191 4.20019C113.191 2.92719 114.318 2.31681 115.835 2.31681C117.597 2.31681 118.969 3.00437 120.216 3.99712V1.273C119.018 0.458375 117.476 0 115.786 0C113.02 0 110.72 1.50219 110.72 4.25125C110.72 6.82219 112.237 7.942 114.244 8.70556L116.423 9.52019C117.769 10.0546 118.528 10.5391 118.528 11.761C118.528 13.1611 117.329 13.7976 115.615 13.7976C113.853 13.7976 112.213 13.1361 110.842 11.9902V14.7642Z" fill="#111111"></path></g><defs><clipPath id="clip0_198_140"><rect width="121" height="38" fill="white"></rect></clipPath></defs></svg> 