<?xml version="1.0" encoding="UTF-8"?> <svg xmlns="http://www.w3.org/2000/svg" width="178" height="34" viewBox="0 0 178 34" fill="none"><path d="M0.260901 23.0794L2.51118 22.7302V2.50794L0 2.19048L0.130451 0H15.8498L15.4584 6.12698L12.3276 6.03175L12.1319 2.19048H7.27263V11.3016H9.39245L9.88164 9.20635L12.0667 9.26984V15.5556H9.88164L9.35984 13.3968H7.24002V23.0476H12.1319L12.5885 18.8571L15.8824 18.9524L16.1433 25.3333H0.163063L0.260901 23.0794Z" fill="black"></path><path d="M17.6108 25.3651L17.7087 23.4921L19.4698 23.1429V10.381L17.4152 10.1905V8.28576L22.568 7.5556L22.9593 8.63496V9.36512C24.1986 8.09528 25.6988 7.33337 27.6229 7.33337C30.4276 7.33337 32.5148 8.98417 32.5148 12.254V23.1112L34.3738 23.4604L34.2759 25.3334H28.1447V13.2064C28.1447 11.4604 27.4925 10.4762 25.8618 10.4762C25.3074 10.4762 24.9161 10.5715 24.4921 10.7302C24.2312 10.9524 23.9703 11.2699 23.742 11.5556V23.1746L25.6009 23.5239L25.4705 25.3969H17.6108V25.3651Z" fill="black"></path><path d="M116.134 25.3651L116.199 23.4921L117.96 23.1429V10.381L115.906 10.1905V8.28576L121.058 7.5556L121.45 8.63496V9.36512C122.689 8.09528 124.189 7.33337 126.113 7.33337C128.918 7.33337 131.005 8.98417 131.005 12.254V23.1112L132.864 23.4604L132.766 25.3334H126.668V13.2064C126.668 11.4604 126.015 10.4762 124.385 10.4762C123.83 10.4762 123.439 10.5715 123.015 10.7302C122.754 10.9524 122.493 11.2699 122.265 11.5556V23.1746L124.124 23.5239L123.993 25.3969H116.134V25.3651Z" fill="black"></path><path d="M44.0923 25.0158C43.3748 25.3015 42.1029 25.619 40.4397 25.619C38.2546 25.619 36.2327 24.6666 36.2327 21.5555V10.3809L34.1454 10.0634L34.2433 7.84122L36.5914 7.74598L37.6024 4.34915L40.6028 4.22217V7.87296H43.8314L43.6031 10.0952L40.6354 10.4126V21.5872C40.6354 22.5079 41.1572 23.1111 42.1356 23.1111H43.8966L44.0923 25.0158Z" fill="black"></path><path d="M166.162 25.3651L166.227 23.5238L167.89 23.1429V10.3809L165.933 10.1905V8.28571L171.282 7.55555L171.641 8.79365V9.20634C173.043 8.19047 174.934 7.5238 177.217 7.5238L178 8.19047L177.446 13.0159L174.51 12.9206L174.217 10.3492C173.532 10.4444 172.88 10.6349 172.325 11.0159V23.1746L174.184 23.5555L174.054 25.3968H166.162V25.3651Z" fill="black"></path><path d="M89.3588 25.3651L89.4566 23.5238L91.1198 23.1429V10.3809L89.1631 10.1905V8.28571L94.5116 7.55555L94.8703 8.79365V9.20634C96.2726 8.19047 98.1642 7.5238 100.447 7.5238L101.23 8.19047L100.61 13.0159L97.675 12.9206L97.3815 10.3492C96.6966 10.4444 96.0444 10.6349 95.4899 11.0159V23.1746L97.3489 23.5555L97.2184 25.3968H89.3588V25.3651Z" fill="black"></path><path d="M45.3968 25.3651L45.4947 23.5238L47.1579 23.1429V10.3809L45.2012 10.1905V8.28571L50.5496 7.55555L50.9084 8.79365V9.20634C52.3107 8.19047 54.2023 7.5238 56.4525 7.5238L57.2352 8.19047L56.6808 13.0159L53.7457 12.9206L53.4522 10.3492C52.7673 10.4444 52.1151 10.6349 51.5606 11.0159V23.1746L53.4196 23.5555L53.2891 25.3968H45.3968V25.3651Z" fill="black"></path><path d="M62.2902 17.5873C62.2902 20.635 63.66 22.9842 66.3668 22.9842C67.7692 22.9842 68.878 22.6985 70.1825 22.0953L70.9326 23.7778C69.5955 24.8254 67.6387 25.6191 65.1927 25.6191C60.4313 25.6191 57.6918 21.6191 57.6918 16.4762C57.6918 12.0953 59.6812 7.30164 65.1275 7.30164C69.889 7.30164 71.6827 11.5873 71.6827 16.3493L71.2261 17.4921L62.2902 17.5873ZM62.225 15.5556L67.7039 15.3016C67.6061 13.1747 67.1495 9.80957 64.9971 9.80957C64.4753 9.80957 64.1165 9.90481 63.4643 10.2223C62.5837 11.6826 62.225 14.3175 62.225 15.5556Z" fill="black"></path><path d="M138.082 17.5873C138.082 20.635 139.452 22.9842 142.159 22.9842C143.561 22.9842 144.67 22.6985 145.974 22.0953L146.724 23.7778C145.387 24.8254 143.431 25.6191 140.985 25.6191C136.223 25.6191 133.484 21.6191 133.484 16.4762C133.484 12.0953 135.473 7.30164 140.919 7.30164C145.681 7.30164 147.474 11.5873 147.474 16.3493L147.018 17.4921L138.082 17.5873ZM138.017 15.5556L143.496 15.3016C143.398 13.1747 142.941 9.80957 140.789 9.80957C140.267 9.80957 139.908 9.90481 139.256 10.2223C138.376 11.6826 138.017 14.3175 138.017 15.5556Z" fill="black"></path><path d="M106.252 17.5873C106.252 20.635 107.622 22.9842 110.329 22.9842C111.731 22.9842 112.84 22.6985 114.144 22.0953L114.894 23.7778C113.557 24.8254 111.601 25.6191 109.155 25.6191C104.393 25.6191 101.654 21.6191 101.654 16.4762C101.654 12.0953 103.643 7.30164 109.089 7.30164C113.851 7.30164 115.645 11.5873 115.645 16.3493L115.188 17.4921L106.252 17.5873ZM106.187 15.5556L111.666 15.3016C111.568 13.1747 111.111 9.80957 108.959 9.80957C108.437 9.80957 108.078 9.90481 107.426 10.2223C106.546 11.6826 106.154 14.3175 106.187 15.5556Z" fill="black"></path><path d="M159.802 25.3651L159.346 23.8413C158.139 24.9524 156.965 25.6191 155.139 25.6191C152.334 25.6191 149.823 24.254 149.823 20.4762V9.93653L147.768 9.74606V8.06352L153.704 7.39685L154.16 8.92066V19.9683C154.16 21.9048 154.975 22.9207 156.573 22.9207C157.03 22.9207 157.617 22.8572 158.139 22.6667C158.432 22.381 158.726 22.0318 158.954 21.6826V9.93653L156.834 9.74606V8.06352L162.835 7.39685L163.292 8.92066V23.1429L165.151 23.4921L164.922 25.3651H159.802Z" fill="black"></path><path d="M80.5859 22.9868C79.6402 22.9868 78.8901 22.828 78.303 22.5106V11.3042C78.5639 10.9233 78.8575 10.5741 79.151 10.2566C79.7054 10.0661 80.1946 10.0026 80.7816 10.0026C83.2275 10.0026 83.6515 12.4153 83.6515 16.7328C83.6515 20.8915 82.9993 22.0344 82.8362 22.5106C82.1513 22.828 81.4339 22.9868 80.5859 22.9868ZM87.8912 15.9709C87.8912 10.6058 86.2605 7.24072 82.1839 7.24072C79.4771 7.24072 78.2052 8.76453 77.6834 9.39945V8.79628L77.2268 7.27247L71.9109 8.00263V9.8439L73.9655 10.0979V31.7487L72.2045 32.0979L72.1066 33.9074H79.9663L80.0967 32.0979L78.2378 31.7487V24.8915C78.9879 25.3042 80.0315 25.5582 81.1729 25.5582C87.8259 25.5582 87.8912 18.9868 87.8912 15.9709Z" fill="black"></path></svg> 