<?xml version="1.0" encoding="UTF-8"?> <svg xmlns="http://www.w3.org/2000/svg" width="121" height="32" viewBox="0 0 121 32" fill="none"><path d="M11.681 2.98295H14.3309C15.9447 2.74273 17.5927 2.95394 19.096 3.59364C20.982 4.74021 22.35 6.58608 22.9081 8.73748C23.3033 9.86489 23.3033 9.86489 24.2563 9.4656H25.0001V0.54022H0.0588087V2.11391H1.08156C1.52601 2.1108 1.9655 2.20834 2.36774 2.39937C2.76998 2.59041 3.12476 2.87008 3.40601 3.21783C4.35903 4.76803 4.52174 6.50613 4.52174 15.5489C4.52174 25.1555 4.31254 27.5043 3.40601 28.7021C3.18221 29.0101 2.89246 29.263 2.55839 29.4419C2.22432 29.6209 1.85456 29.7213 1.47672 29.7356C0.0588088 29.994 0.0588087 29.9705 0.0588087 30.6047C-0.0196029 30.8167 -0.0196029 31.0502 0.0588087 31.2623H15.7953C15.8994 31.0549 15.9537 30.8255 15.9537 30.5929C15.9537 30.3603 15.8994 30.131 15.7953 29.9235C15.4142 29.8163 15.0257 29.7378 14.6331 29.6886C14.2083 29.6376 13.7885 29.5512 13.3779 29.4303C12.7898 28.9965 12.324 28.4151 12.0264 27.7437C11.7288 27.0722 11.6098 26.3339 11.681 25.6017C11.4486 24.0515 11.3324 21.2095 11.3324 18.8607V17.0052H12.2621C13.4205 16.9694 14.5783 17.0958 15.7023 17.381C16.2408 17.7173 16.6992 18.1695 17.0448 18.7054C17.3903 19.2414 17.6145 19.8478 17.7013 20.4814L17.9105 21.2095H19.3285V10.8044H18.0268L17.8176 11.8144C17.7296 12.4623 17.4923 13.0804 17.125 13.6189C16.7576 14.1573 16.2703 14.6012 15.7023 14.9148C15.1523 15.0802 14.5727 15.1203 14.0055 15.0322H11.3324V12.4955C11.3324 9.86489 11.4718 4.32176 11.5648 3.45271L11.681 2.98295ZM120.465 21.6088C119.366 19.8219 117.653 18.5085 115.653 17.9212C114.121 17.4371 112.704 16.6374 111.493 15.5724C111.22 15.306 111.016 14.9762 110.899 14.6118C110.781 14.2475 110.754 13.8596 110.819 13.482C110.82 12.7414 111.113 12.0318 111.632 11.509C111.984 11.1367 112.429 10.8679 112.921 10.7313C113.412 10.5948 113.931 10.5957 114.421 10.7339C115.438 11.0266 116.357 11.5915 117.081 12.3689C117.805 13.1462 118.308 14.1071 118.536 15.1497C118.908 16.2066 118.954 16.2066 119.628 15.9248L120.047 15.7603V9.91187L119.744 9.77094C117.456 8.9588 115.029 8.62323 112.608 8.78445C110.524 8.83781 108.535 9.67541 107.03 11.1332C106.347 11.7789 105.813 12.5675 105.463 13.4439C105.114 14.3202 104.958 15.2631 105.007 16.2066C105.021 17.649 105.587 19.0301 106.588 20.0586C107.694 21.1578 109.051 21.9646 110.54 22.4074C114.143 23.8402 115.189 24.7562 115.189 26.4238C115.204 27.1271 114.982 27.8147 114.56 28.3739C114.138 28.933 113.54 29.3304 112.864 29.5007C112.052 29.6809 111.212 29.6809 110.4 29.5007C109.338 29.084 108.389 28.4168 107.633 27.5548C106.877 26.6928 106.335 25.6609 106.053 24.5448L105.751 23.7932H105.333C105.133 23.8082 104.937 23.8558 104.752 23.9341H104.519V30.6047H104.915C106.485 31.1325 108.105 31.4946 109.749 31.6851H112.074C113.082 31.7598 114.095 31.6646 115.072 31.4032C116.313 31.1719 117.472 30.6166 118.434 29.7925C119.397 28.9684 120.129 27.9042 120.558 26.7057C120.835 26.0362 120.978 25.3175 120.976 24.5918C121.068 23.5693 120.892 22.5405 120.465 21.6088ZM98.5688 9.4656C97.1759 8.87467 95.6751 8.58801 94.1648 8.62444C92.6546 8.66088 91.169 9.01957 89.8056 9.67699C88.5241 10.3104 87.3882 11.2083 86.4713 12.3128C85.5545 13.4173 84.877 14.7038 84.4826 16.0892C83.9799 17.6005 83.7668 19.1948 83.855 20.7867C83.8384 21.6529 83.9085 22.5185 84.0642 23.3704C84.4396 25.4651 85.4404 27.3935 86.9321 28.8966C88.4238 30.3997 90.335 31.4056 92.409 31.779C93.7596 31.951 95.1262 31.951 96.4768 31.779C97.8783 31.5294 99.2196 31.0112 100.428 30.2523C101.428 29.6859 102.274 28.8792 102.892 27.9036C102.853 27.7505 102.783 27.6071 102.687 27.4819C102.591 27.3568 102.471 27.2526 102.334 27.1754C102.069 27.2725 101.819 27.4069 101.591 27.5747C100.434 28.3447 99.0692 28.7306 97.6855 28.6786C96.7671 28.7414 95.8464 28.5969 94.99 28.2557C94.1337 27.9144 93.3632 27.385 92.7344 26.7057C92.248 26.2491 91.8465 25.7082 91.549 25.1085C90.8266 23.6483 90.4374 22.0431 90.41 20.4109V19.4949H103.287V19.0251C103.316 18.5558 103.316 18.0852 103.287 17.6159C103.283 15.9574 102.844 14.3297 102.015 12.8982C101.186 11.4667 99.9972 10.2824 98.5688 9.4656ZM92.0836 17.5924H90.4565V16.2066C90.9911 12.6599 92.316 10.546 93.9431 10.546C95.5702 10.546 96.2676 12.6365 96.5698 16.465V17.5454H95.1751L92.0836 17.5924ZM58.6581 8.6905C57.8549 8.65902 57.0564 8.82845 56.3336 9.18374C54.7626 9.95468 53.4937 11.2369 52.7307 12.8244L52.4286 13.3881V8.6905H52.3123C52.0334 8.6905 43.433 10.4286 43.154 10.546C42.8751 10.6635 42.9681 10.687 42.9681 11.1097C42.9681 11.5325 42.9681 11.603 43.154 11.6265L44.0606 11.8144C44.3144 11.8207 44.5636 11.8853 44.7891 12.0033C45.0146 12.1213 45.2106 12.2896 45.3622 12.4955C45.9434 13.2706 46.0596 14.6329 46.0596 20.4344C46.1744 23.0462 46.0655 25.6631 45.7341 28.2559C45.6561 28.6468 45.46 29.0037 45.1727 29.2771C44.8854 29.5506 44.5211 29.7272 44.1303 29.7826L43.34 29.947H43.0378V30.6047C42.9535 30.8237 42.9535 31.0667 43.0378 31.2858H56.0314V30.6047C56.0765 30.3799 56.0765 30.1483 56.0314 29.9235C55.2491 29.8927 54.4711 29.7905 53.707 29.6182C53.2909 29.3982 52.9505 29.0561 52.7305 28.6368C52.5106 28.2176 52.4216 27.7408 52.475 27.2694C52.2891 25.9071 52.1961 21.9142 52.2426 18.8607C52.2891 15.8073 52.2426 15.6194 52.4983 15.408C53.2761 14.8054 54.2386 14.4978 55.2179 14.539C56.141 14.5593 57.0473 14.7923 57.8678 15.2201C58.1522 15.3797 58.4573 15.4983 58.7743 15.5724C58.7743 15.5724 61.0987 9.88838 61.0987 9.63001C60.8013 9.28074 60.4223 9.01192 59.9962 8.84787C59.57 8.68383 59.1101 8.62974 58.6581 8.6905ZM42.9913 18.5554C42.9102 16.877 42.4333 15.2424 41.6004 13.7879C40.7675 12.3335 39.6026 11.1012 38.2029 10.1937C36.5396 9.28697 34.6889 8.787 32.7997 8.73397C30.9104 8.68094 29.0352 9.07633 27.3245 9.88838C24.9059 11.1771 23.0798 13.3678 22.234 15.9952C21.3604 18.9369 21.3604 22.0729 22.234 25.0145C22.692 26.6222 23.548 28.0854 24.7212 29.2658C26.1823 30.7065 28.0663 31.6295 30.0906 31.8965C31.3901 32.0063 32.6963 32.0063 33.9957 31.8965C34.4739 31.823 34.9473 31.721 35.4136 31.5911C37.3056 31.0563 39.0078 29.9881 40.3209 28.5115C41.6341 27.0349 42.5039 25.2109 42.8286 23.253C43.0606 21.6986 43.1152 20.1224 42.9913 18.5554ZM33.3216 30.2993C30.9972 31.0039 29.2538 28.7256 28.6727 23.9341C28.4593 21.4255 28.4593 18.9031 28.6727 16.3945C29.1376 12.5425 30.3231 10.593 32.1594 10.593C32.5299 10.5698 32.9005 10.6366 33.2402 10.7878C33.5799 10.939 33.8788 11.1702 34.1119 11.4621C35.6693 13.0357 36.4364 16.1596 36.4364 20.8572C36.6298 23.5158 36.2162 26.1837 35.2277 28.6552C34.7911 29.376 34.1158 29.9169 33.3216 30.1819V30.2993ZM75.1616 9.16026C74.5057 9.07497 73.8417 9.07497 73.1858 9.16026C71.9268 9.15917 70.6823 9.43152 69.5365 9.95884L68.8159 10.2642V5.16732C68.9418 3.44723 68.9418 1.72009 68.8159 0C68.5369 0 59.6576 1.71461 59.5181 1.78508C59.4496 1.95849 59.4496 2.15188 59.5181 2.3253C59.5181 2.81854 59.5181 2.79505 60.5641 3.02993C60.8578 3.09648 61.1399 3.20733 61.4009 3.35876C61.8546 3.7899 62.1566 4.35896 62.261 4.97942C62.5256 6.7669 62.6113 8.57678 62.5166 10.3816V31.0039L63.1442 31.1449C64.074 31.3563 66.7006 31.8025 67.5607 31.8965C69.2781 32.0345 71.0036 32.0345 72.721 31.8965C74.6272 31.6997 76.4441 30.9811 77.976 29.8181C79.5079 28.6551 80.6968 27.0917 81.4144 25.2964C81.8422 24.1442 82.1385 22.9464 82.2977 21.7262C82.436 20.0735 82.3814 18.4101 82.135 16.7703C81.8856 14.9322 81.0827 13.2161 79.8353 11.8547C78.5878 10.4934 76.9562 9.55268 75.1616 9.16026ZM69.0716 29.9C69.0716 29.5947 68.8391 19.307 68.8856 15.1966V11.9788L69.5597 11.8144C70.0145 11.7485 70.4763 11.7485 70.9311 11.8144C71.4341 11.7627 71.9401 11.8781 72.3723 12.1432C73.2403 12.7486 73.9612 13.545 74.4806 14.4726C75 15.4002 75.3044 16.4348 75.3708 17.4984C75.5402 19.2088 75.5402 20.9319 75.3708 22.6423C75.2317 25.1281 74.2838 27.4979 72.6745 29.3833C72.2177 29.8217 71.6441 30.1156 71.0241 30.2288C70.555 30.3113 70.0753 30.3113 69.6062 30.2288C69.1646 30.2288 69.1646 30.0879 69.1646 29.9H69.0716Z" fill="#33629A"></path></svg> 