<?xml version="1.0" encoding="UTF-8"?> <svg xmlns="http://www.w3.org/2000/svg" width="105" height="45" viewBox="0 0 105 45" fill="none"><path fill-rule="evenodd" clip-rule="evenodd" d="M27.5961 22.5675C27.5961 10.5405 37.232 0.810532 49.1751 0.810532C61.073 0.810532 70.6638 10.5405 70.6638 22.5675C70.6638 34.5946 61.073 44.3243 49.1751 44.3243C37.232 44.3243 27.5961 34.6395 27.5961 22.5675ZM0 45V-0.000293732H27.0984L27.9127 12.3424H12.7576V18.243H25.153V30.4054H12.7576V45H0ZM105 44.865L91.4287 21.6215L103.824 0.179958H90.1167L84.5975 9.72963L78.9881 0.179958H65.009L77.5398 21.7568L64.1946 44.865H77.9019L84.3711 33.6935L90.931 44.865H105ZM52.8849 31.4864V13.6487C52.8849 11.5315 51.3014 9.72963 49.1751 9.72963C47.2299 9.72963 45.5559 11.5315 45.5559 13.6487V31.4864C45.5559 33.4686 47.2299 35.1349 49.1751 35.1349C51.3014 35.1349 52.8849 33.6935 52.8849 31.4864Z" fill="#2E3192"></path></svg> 