<?xml version="1.0" encoding="utf-8"?>
<!-- Generator: Adobe Illustrator 26.0.3, SVG Export Plug-In . SVG Version: 6.00 Build 0)  -->
<svg version="1.0" id="katman_1" xmlns="http://www.w3.org/2000/svg" xmlns:xlink="http://www.w3.org/1999/xlink" x="0px" y="0px"
	 viewBox="0 0 800 600" style="enable-background:new 0 0 800 600;" xml:space="preserve">
<style type="text/css">
	.st0{fill:#1D1D1B;}
</style>
<path class="st0" d="M99.6,211.5h88.1v-19H99.6V211.5z M502.1,313.3h-61.6v-63.2h61.6c22,0,36.7,12.7,36.7,31.6
	C538.8,300.6,524.1,313.3,502.1,313.3 M522.5,328.1c21.1-6,34.8-24.2,34.8-46.4c0-28.7-22.2-48-55.2-48H422v169.8h18.5V330h62.7
	l39.9,73.5h20l-41.6-75.1L522.5,328.1z M326,406.7c45.4,0,77-31.9,77-77.5v-95.5h-19v94.2c0,35.2-23.9,59.7-58,59.7
	c-28.3,0-58.8-18.7-58.8-59.7v-94.2h-19v95.5C248.2,374.8,280.2,406.7,326,406.7 M657.8,255.8l40.1,87.7h-80.4L657.8,255.8z
	 M648.9,233.7l-77.6,169.8h19.9l19.2-43.5h94.7l19.2,43.5h19.9l-77.6-169.8L648.9,233.7z M143.6,230.5c-48.6,0-88.1,39.5-88.1,88.1
	c0,48.6,39.5,88.1,88.1,88.1c48.6,0,88.1-39.5,88.1-88.1C231.7,270,192.2,230.5,143.6,230.5 M143.6,387.7c-38.1,0-69.1-31-69.1-69.1
	c0-38.1,31-69.1,69.1-69.1c38.1,0,69.1,31,69.1,69.1C212.7,356.7,181.7,387.7,143.6,387.7"/>
</svg>
