<svg width="36" height="36" viewBox="0 0 36 36" fill="none" xmlns="http://www.w3.org/2000/svg">
<g clip-path="url(#clip0_90_863)">
<path d="M29.9185 8.00877C29.805 7.99708 29.6907 7.99708 29.5772 8.00877H6.26631C6.11691 8.01107 5.9685 8.03347 5.82507 8.07537L17.8551 20.0555L29.9185 8.00877Z" fill="#333333"/>
<path d="M31.1506 9.16577L19.0289 21.2375C18.717 21.5476 18.295 21.7217 17.8551 21.7217C17.4152 21.7217 16.9932 21.5476 16.6812 21.2375L4.66777 9.25735C4.63084 9.39309 4.61126 9.53296 4.6095 9.67362V26.3242C4.6095 26.7658 4.78492 27.1894 5.09718 27.5016C5.40944 27.8139 5.83296 27.9893 6.27456 27.9893H29.5854C30.027 27.9893 30.4505 27.8139 30.7628 27.5016C31.0751 27.1894 31.2505 26.7658 31.2505 26.3242V9.67362C31.2439 9.50016 31.2102 9.32881 31.1506 9.16577ZM7.41513 26.3242H6.25791V25.1337L12.3104 19.1312L13.4843 20.305L7.41513 26.3242ZM29.5688 26.3242H28.4032L22.3341 20.305L23.5079 19.1312L29.5604 25.1337L29.5688 26.3242Z" fill="#333333"/>
</g>
<defs>
<clipPath id="clip0_90_863">
<rect width="36" height="36" fill="white"/>
</clipPath>
</defs>
</svg>
