<svg width="46" height="46" viewBox="0 0 46 46" fill="none" xmlns="http://www.w3.org/2000/svg">
<path d="M37.7098 32.1301C37.0961 31.5258 29.6593 28.6492 28.3098 28.1066C26.9675 27.5734 26.432 26.096 26.432 26.096C26.432 26.096 25.8277 26.4301 25.8277 25.4918C25.8277 24.5522 26.432 26.096 27.0362 22.473C27.0362 22.473 28.7127 22.0026 28.3797 18.113H27.9769C27.9769 18.113 28.984 13.9544 27.9769 12.5469C26.9663 11.1394 26.5706 10.2011 24.3515 9.52811C22.136 8.85635 22.9416 8.99023 21.3327 9.05894C19.7214 9.12648 18.3802 9.99847 18.3802 10.4665C18.3802 10.4665 17.3732 10.534 16.9727 10.9368C16.5699 11.3396 15.8993 13.2163 15.8993 13.6855C15.8993 14.1547 16.2346 17.3109 16.5699 17.9791L16.1706 18.1094C15.8353 22.0002 17.5118 22.4718 17.5118 22.4718C18.116 26.0948 18.7203 24.5511 18.7203 25.4906C18.7203 26.4289 18.116 26.0948 18.116 26.0948C18.116 26.0948 17.5793 27.5711 16.2382 28.1054C14.897 28.6421 7.45187 31.5258 6.84645 32.1289C6.24222 32.745 6.30975 35.56 6.30975 35.56H38.2442C38.2442 35.56 38.3188 32.7426 37.7075 32.1277L37.7098 32.1301ZM30.2043 34.7958H24.7993V33.3148H30.2043V34.7958Z" fill="#333333"/>
</svg>
