<svg width="116" height="22" viewBox="0 0 116 22" fill="none" xmlns="http://www.w3.org/2000/svg">
<g clip-path="url(#clip0_147_17534)">
<path fill-rule="evenodd" clip-rule="evenodd" d="M104.505 2.52002C104.602 2.35407 104.74 2.21637 104.907 2.12067C105.074 2.02497 105.262 1.97461 105.454 1.97461C105.646 1.97461 105.835 2.02497 106.002 2.12067C106.168 2.21637 106.307 2.35407 106.403 2.52002L108.86 6.73644L113.63 7.76989C113.817 7.81067 113.991 7.89991 114.133 8.02873C114.276 8.15754 114.382 8.32143 114.441 8.50405C114.501 8.68668 114.511 8.88166 114.471 9.06955C114.432 9.25745 114.344 9.43169 114.216 9.57492L110.964 13.214L111.456 18.0693C111.476 18.2605 111.445 18.4534 111.366 18.6288C111.288 18.8042 111.165 18.956 111.009 19.069C110.854 19.1819 110.671 19.2521 110.48 19.2725C110.289 19.293 110.096 19.2629 109.92 19.1854L105.454 17.2169L100.988 19.1854C100.813 19.2629 100.619 19.293 100.428 19.2725C100.237 19.2521 100.055 19.1819 99.8994 19.069C99.7439 18.956 99.6208 18.8042 99.5423 18.6288C99.4639 18.4534 99.4328 18.2605 99.4522 18.0693L99.9443 13.214L96.6928 9.5758C96.5647 9.43258 96.4764 9.25827 96.4368 9.07025C96.3971 8.88224 96.4074 8.68711 96.4667 8.50435C96.5261 8.32158 96.6323 8.15757 96.7748 8.0287C96.9173 7.89982 97.0912 7.81058 97.279 7.76989L102.049 6.73644L104.505 2.52002ZM105.454 4.38217L103.422 7.87271C103.345 8.00446 103.241 8.11876 103.118 8.20833C102.994 8.2979 102.854 8.36078 102.705 8.39295L98.7571 9.24802L101.448 12.2596C101.654 12.4899 101.753 12.7957 101.722 13.1024L101.315 17.1211L105.011 15.4918C105.151 15.4303 105.302 15.3986 105.454 15.3986C105.607 15.3986 105.758 15.4303 105.897 15.4918L109.593 17.1211L109.187 13.1024C109.171 12.9506 109.187 12.7973 109.234 12.6522C109.282 12.5071 109.358 12.3734 109.46 12.2596L112.152 9.24802L108.204 8.39295C108.055 8.36078 107.914 8.2979 107.791 8.20833C107.667 8.11876 107.564 8.00446 107.487 7.87271L105.454 4.38217Z" fill="#BB8C56"/>
<g clip-path="url(#clip1_147_17534)">
<path d="M104.596 2.52002C104.693 2.35407 104.831 2.21637 104.998 2.12067C105.164 2.02497 105.353 1.97461 105.545 1.97461C105.737 1.97461 105.926 2.02497 106.092 2.12067C106.259 2.21637 106.398 2.35407 106.494 2.52002L108.95 6.73644L113.721 7.76989C113.908 7.81067 114.082 7.89991 114.224 8.02873C114.367 8.15754 114.473 8.32143 114.532 8.50405C114.591 8.68668 114.602 8.88166 114.562 9.06955C114.523 9.25745 114.435 9.43169 114.307 9.57492L111.055 13.214L111.547 18.0693C111.567 18.2605 111.536 18.4534 111.457 18.6288C111.379 18.8042 111.256 18.956 111.1 19.069C110.945 19.1819 110.762 19.2521 110.571 19.2725C110.38 19.293 110.187 19.2629 110.011 19.1854L105.545 17.2169L101.079 19.1854C100.903 19.2629 100.71 19.293 100.519 19.2725C100.328 19.2521 100.146 19.1819 99.9902 19.069C99.8348 18.956 99.7116 18.8042 99.6332 18.6288C99.5547 18.4534 99.5236 18.2605 99.543 18.0693L100.035 13.214L96.7836 9.5758C96.6555 9.43258 96.5672 9.25827 96.5276 9.07025C96.4879 8.88224 96.4982 8.68711 96.5576 8.50435C96.6169 8.32158 96.7231 8.15757 96.8656 8.0287C97.0082 7.89982 97.182 7.81058 97.3698 7.76989L102.14 6.73644L104.596 2.52002Z" fill="#BB8C56"/>
</g>
</g>
<g clip-path="url(#clip2_147_17534)">
<path d="M9.59606 2.52002C9.69277 2.35407 9.8313 2.21637 9.99783 2.12067C10.1644 2.02497 10.3531 1.97461 10.5452 1.97461C10.7372 1.97461 10.9259 2.02497 11.0925 2.12067C11.259 2.21637 11.3975 2.35407 11.4942 2.52002L13.9505 6.73644L18.7205 7.76989C18.9081 7.81067 19.0818 7.89991 19.2242 8.02873C19.3666 8.15754 19.4727 8.32143 19.532 8.50405C19.5913 8.68668 19.6017 8.88166 19.5622 9.06955C19.5227 9.25745 19.4345 9.43169 19.3067 9.57492L16.0552 13.214L16.5473 18.0693C16.5667 18.2605 16.5356 18.4534 16.4571 18.6288C16.3787 18.8042 16.2556 18.956 16.1001 19.069C15.9446 19.1819 15.7622 19.2521 15.5712 19.2725C15.3801 19.293 15.187 19.2629 15.0112 19.1854L10.5452 17.2169L6.07915 19.1854C5.90332 19.2629 5.71023 19.293 5.51915 19.2725C5.32807 19.2521 5.14569 19.1819 4.99022 19.069C4.83475 18.956 4.71164 18.8042 4.63317 18.6288C4.5547 18.4534 4.52362 18.2605 4.54303 18.0693L5.03515 13.214L1.78364 9.5758C1.65553 9.43258 1.56724 9.25827 1.52757 9.07025C1.4879 8.88224 1.49824 8.68711 1.55756 8.50435C1.61689 8.32158 1.72311 8.15757 1.86563 8.0287C2.00816 7.89982 2.18199 7.81058 2.36979 7.76989L7.13985 6.73644L9.59606 2.52002Z" fill="#BB8C56"/>
</g>
<g clip-path="url(#clip3_147_17534)">
<path d="M33.3236 2.52002C33.4203 2.35407 33.5588 2.21637 33.7254 2.12067C33.8919 2.02497 34.0806 1.97461 34.2727 1.97461C34.4648 1.97461 34.6535 2.02497 34.82 2.12067C34.9865 2.21637 35.1251 2.35407 35.2218 2.52002L37.678 6.73644L42.4481 7.76989C42.6357 7.81067 42.8094 7.89991 42.9517 8.02873C43.0941 8.15754 43.2003 8.32143 43.2596 8.50405C43.3189 8.68668 43.3293 8.88166 43.2897 9.06955C43.2502 9.25745 43.1621 9.43169 43.0342 9.57492L39.7827 13.214L40.2748 18.0693C40.2942 18.2605 40.2631 18.4534 40.1847 18.6288C40.1062 18.8042 39.9831 18.956 39.8276 19.069C39.6722 19.1819 39.4898 19.2521 39.2987 19.2725C39.1076 19.293 38.9145 19.2629 38.7387 19.1854L34.2727 17.2169L29.8067 19.1854C29.6309 19.2629 29.4378 19.293 29.2467 19.2725C29.0556 19.2521 28.8732 19.1819 28.7178 19.069C28.5623 18.956 28.4392 18.8042 28.3607 18.6288C28.2822 18.4534 28.2512 18.2605 28.2706 18.0693L28.7627 13.214L25.5112 9.5758C25.3831 9.43258 25.2948 9.25827 25.2551 9.07025C25.2154 8.88224 25.2258 8.68711 25.2851 8.50435C25.3444 8.32158 25.4506 8.15757 25.5932 8.0287C25.7357 7.89982 25.9095 7.81058 26.0973 7.76989L30.8674 6.73644L33.3236 2.52002Z" fill="#BB8C56"/>
</g>
<g clip-path="url(#clip4_147_17534)">
<path d="M57.0502 2.52002C57.1469 2.35407 57.2854 2.21637 57.4519 2.12067C57.6185 2.02497 57.8072 1.97461 57.9993 1.97461C58.1913 1.97461 58.38 2.02497 58.5466 2.12067C58.7131 2.21637 58.8516 2.35407 58.9483 2.52002L61.4046 6.73644L66.1746 7.76989C66.3623 7.81067 66.5359 7.89991 66.6783 8.02873C66.8207 8.15754 66.9268 8.32143 66.9861 8.50405C67.0454 8.68668 67.0558 8.88166 67.0163 9.06955C66.9768 9.25745 66.8887 9.43169 66.7608 9.57492L63.5093 13.214L64.0014 18.0693C64.0208 18.2605 63.9897 18.4534 63.9112 18.6288C63.8328 18.8042 63.7097 18.956 63.5542 19.069C63.3987 19.1819 63.2163 19.2521 63.0253 19.2725C62.8342 19.293 62.6411 19.2629 62.4653 19.1854L57.9993 17.2169L53.5333 19.1854C53.3574 19.2629 53.1643 19.293 52.9733 19.2725C52.7822 19.2521 52.5998 19.1819 52.4443 19.069C52.2889 18.956 52.1657 18.8042 52.0873 18.6288C52.0088 18.4534 51.9777 18.2605 51.9971 18.0693L52.4893 13.214L49.2377 9.5758C49.1096 9.43258 49.0213 9.25827 48.9817 9.07025C48.942 8.88224 48.9523 8.68711 49.0117 8.50435C49.071 8.32158 49.1772 8.15757 49.3197 8.0287C49.4623 7.89982 49.6361 7.81058 49.8239 7.76989L54.594 6.73644L57.0502 2.52002Z" fill="#BB8C56"/>
</g>
<g clip-path="url(#clip5_147_17534)">
<path d="M80.7777 2.52002C80.8744 2.35407 81.0129 2.21637 81.1795 2.12067C81.346 2.02497 81.5347 1.97461 81.7268 1.97461C81.9189 1.97461 82.1076 2.02497 82.2741 2.12067C82.4406 2.21637 82.5792 2.35407 82.6759 2.52002L85.1321 6.73644L89.9022 7.76989C90.0898 7.81067 90.2635 7.89991 90.4058 8.02873C90.5482 8.15754 90.6544 8.32143 90.7137 8.50405C90.773 8.68668 90.7834 8.88166 90.7438 9.06955C90.7043 9.25745 90.6162 9.43169 90.4883 9.57492L87.2368 13.214L87.7289 18.0693C87.7483 18.2605 87.7172 18.4534 87.6388 18.6288C87.5603 18.8042 87.4372 18.956 87.2817 19.069C87.1263 19.1819 86.9439 19.2521 86.7528 19.2725C86.5617 19.293 86.3686 19.2629 86.1928 19.1854L81.7268 17.2169L77.2608 19.1854C77.085 19.2629 76.8919 19.293 76.7008 19.2725C76.5097 19.2521 76.3273 19.1819 76.1719 19.069C76.0164 18.956 75.8933 18.8042 75.8148 18.6288C75.7363 18.4534 75.7053 18.2605 75.7247 18.0693L76.2168 13.214L72.9653 9.5758C72.8372 9.43258 72.7489 9.25827 72.7092 9.07025C72.6695 8.88224 72.6799 8.68711 72.7392 8.50435C72.7985 8.32158 72.9048 8.15757 73.0473 8.0287C73.1898 7.89982 73.3636 7.81058 73.5514 7.76989L78.3215 6.73644L80.7777 2.52002Z" fill="#BB8C56"/>
</g>
<defs>
<clipPath id="clip0_147_17534">
<rect width="21.0909" height="21.0909" fill="white" transform="translate(94.9092)"/>
</clipPath>
<clipPath id="clip1_147_17534">
<rect width="21.0909" height="21.0909" fill="white" transform="translate(95)"/>
</clipPath>
<clipPath id="clip2_147_17534">
<rect width="21.0909" height="21.0909" fill="white"/>
</clipPath>
<clipPath id="clip3_147_17534">
<rect width="21.0909" height="21.0909" fill="white" transform="translate(23.7275)"/>
</clipPath>
<clipPath id="clip4_147_17534">
<rect width="21.0909" height="21.0909" fill="white" transform="translate(47.4541)"/>
</clipPath>
<clipPath id="clip5_147_17534">
<rect width="21.0909" height="21.0909" fill="white" transform="translate(71.1816)"/>
</clipPath>
</defs>
</svg>
