<?xml version="1.0"?>
<svg xmlns="http://www.w3.org/2000/svg" viewBox="0 0 57.54 51.4">
  <defs>
    <style>.cls-1{fill:#fff;}</style>
  </defs>
  <title>Asset 4</title>
  <g id="Layer_2" data-name="Layer 2">
    <g id="Layer_1-2" data-name="Layer 1">
      <path class="cls-1" d="M57.25,1.4c-7,0-13.7-.8-20.7-1.4-.1,0-.4,3.8.1,3.9a57.07,57.07,0,0,0,7.2,1.3c-8.7,3.1-16.7,8.5-23.8,13.9-9.7,7.4-17.6,17.1-20,29.3-.2.9.3,2.4.1,3,2.6-12.5,11.2-22,21.4-29.2,9.2-6.6,19.8-13,31.2-14.3a40.21,40.21,0,0,0-2.9,2.8,47.93,47.93,0,0,0-5.7,7.7c-.2.4.3,1.7.1,2,2.9-3.1,5.5-6.5,8.6-9.4,2-1.9,4.3-3.2,4.6-6.1C57.55,4.4,57.65,1.4,57.25,1.4Z"/>
    </g>
  </g>
</svg>
