<?xml version="1.0" encoding="utf-8"?>
<!-- Generator: Adobe Illustrator 24.0.1, SVG Export Plug-In . SVG Version: 6.00 Build 0)  -->
<svg version="1.1" id="Layer_1" xmlns="http://www.w3.org/2000/svg" xmlns:xlink="http://www.w3.org/1999/xlink" x="0px" y="0px"
	 viewBox="0 0 245 100" style="enable-background:new 0 0 245 100;" xml:space="preserve">
<style type="text/css">
	.st0{fill:#6D6E71;}
	.st1{fill:#C1CE30;}
	.st2{fill:#A7A9AC;}
	.st3{fill:#545456;}
	.st4{fill:#7D891C;}
	.st5{fill:#312F30;}
</style>
<g>
	<g>
		<path class="st0" d="M25.8,25.6c-14,0-25.3,11.3-25.3,25.3s11.3,25.3,25.3,25.3c3.7,0,7.3-0.8,10.4-2.2c-3.4-3.3-5.5-7.9-5.5-13.1
			c0-6.6,3.5-12.3,8.7-15.5c-2.7-2.7-4.3-6.5-4.3-10.6c0-2.4,0.6-4.7,1.6-6.8C33.4,26.5,29.7,25.6,25.8,25.6"/>
		<path class="st1" d="M50.3,50c8.4,0,15.2-6.8,15.2-15.2s-6.8-15.2-15.2-15.2s-15.2,6.8-15.2,15.2S41.9,50,50.3,50"/>
		<path class="st2" d="M60,46.4c-2.4,2.1-5.5,3.4-8.9,3.5c0,0.3,0,0.6,0,0.9C51.1,61.2,45,70,36.3,74c3.3,3.2,7.8,5.2,12.7,5.2
			c10.1,0,18.2-8.2,18.2-18.2C67.2,55,64.4,49.8,60,46.4"/>
		<path class="st3" d="M39.4,45.4c-5.2,3.2-8.7,9-8.7,15.5c0,5.1,2.1,9.8,5.5,13.1c8.8-4,14.9-12.8,14.9-23.1c0-0.3,0-0.6,0-0.9
			c-0.3,0-0.5,0-0.8,0C46,50,42.2,48.2,39.4,45.4"/>
		<path class="st4" d="M49,42.7c-3.5,0-6.8,1-9.6,2.7C42.2,48.2,46,50,50.3,50c0.3,0,0.6,0,0.8,0c3.4-0.2,6.5-1.5,8.9-3.5
			C57,44.1,53.1,42.7,49,42.7"/>
		<path class="st5" d="M126.8,67.2l5,12.6l-0.5,1.4c-0.1,0.3-0.3,0.6-0.4,0.8c-0.1,0.2-0.3,0.5-0.4,0.6c-0.2,0.2-0.4,0.3-0.6,0.4
			c-0.2,0.1-0.5,0.1-0.8,0.1c-0.2,0-0.4,0-0.5,0c-0.2,0-0.3-0.1-0.5-0.1v1.3c0.1,0,0.3,0.1,0.5,0.1s0.4,0,0.7,0c0.5,0,0.9,0,1.2-0.1
			s0.6-0.2,0.8-0.4c0.2-0.2,0.5-0.5,0.6-0.8c0.2-0.4,0.4-0.8,0.6-1.3l5.5-14.5h-1.5L132.6,78l-4.2-10.7h-1.6V67.2z M122.5,67.2h-2.2
			v1.3h2.2v8.6c0,1.1,0.2,1.8,0.6,2.2c0.4,0.4,1.1,0.6,2.2,0.6c0.2,0,0.5,0,0.7,0s0.5,0,0.7,0v-1.3c-0.4,0-0.9,0.1-1.3,0.1
			c-0.6,0-0.9-0.2-1-0.5s-0.2-0.7-0.2-1.2v-8.5h2.6v-1.3h-2.6v-3.8h-1.5v3.8H122.5z M119.2,62.4h-1.5v17.4h1.5V62.4z M106.4,76.4
			c0-0.6,0.2-1.1,0.6-1.4s0.8-0.6,1.4-0.8c0.6-0.2,1.2-0.3,1.9-0.4c0.7-0.1,1.4-0.2,2-0.3c0.2,0,0.5-0.1,0.7-0.2
			c0.3-0.1,0.5-0.2,0.6-0.4l0,0v2c0,0.6-0.1,1.2-0.4,1.7c-0.2,0.5-0.6,0.9-1,1.2c-0.4,0.3-0.9,0.6-1.4,0.8c-0.5,0.2-1.1,0.3-1.7,0.3
			c-0.4,0-0.7-0.1-1.1-0.2c-0.3-0.1-0.6-0.3-0.9-0.5s-0.5-0.5-0.6-0.8C106.5,77.2,106.4,76.8,106.4,76.4 M105.5,74.5
			c-0.4,0.5-0.6,1.2-0.6,2.1c0,0.6,0.1,1.2,0.3,1.6c0.2,0.5,0.5,0.8,0.9,1.1c0.4,0.3,0.8,0.5,1.3,0.7c0.5,0.1,1.1,0.2,1.6,0.2
			c0.6,0,1.2-0.1,1.6-0.2s0.8-0.3,1.2-0.5c0.3-0.2,0.7-0.5,1-0.8s0.6-0.7,0.8-1.1l0,0c0,0.3,0,0.6,0.1,0.9c0,0.3,0.1,0.5,0.3,0.7
			c0.1,0.2,0.3,0.3,0.6,0.5c0.2,0.1,0.5,0.2,0.9,0.2c0.2,0,0.4,0,0.5,0s0.3,0,0.5-0.1v-1.3c-0.1,0.1-0.3,0.1-0.5,0.1
			c-0.6,0-0.9-0.3-0.9-0.9V71c0-0.8-0.1-1.5-0.4-2.1c-0.3-0.5-0.6-0.9-1.1-1.2c-0.4-0.3-0.9-0.5-1.5-0.6s-1.1-0.2-1.7-0.2
			c-0.7,0-1.4,0.1-2,0.2c-0.6,0.2-1.1,0.4-1.6,0.8c-0.4,0.3-0.8,0.8-1.1,1.3c-0.3,0.5-0.4,1.2-0.5,1.9h1.5c0-1,0.4-1.8,1-2.2
			c0.6-0.5,1.4-0.7,2.4-0.7c0.5,0,0.9,0,1.3,0.1s0.7,0.2,1.1,0.4c0.3,0.2,0.5,0.5,0.7,0.8s0.3,0.8,0.3,1.3c0,0.3,0,0.6-0.1,0.8
			c-0.1,0.2-0.2,0.4-0.4,0.5c-0.2,0.1-0.4,0.2-0.6,0.3c-0.2,0-0.5,0.1-0.9,0.1c-0.8,0.1-1.6,0.2-2.5,0.3c-0.8,0.1-1.5,0.3-2.2,0.5
			C106.4,73.6,105.9,74,105.5,74.5 M94.4,72.7c0.1-0.6,0.2-1.1,0.4-1.7c0.2-0.5,0.5-1,0.8-1.4s0.8-0.7,1.2-1c0.5-0.3,1-0.4,1.7-0.4
			c0.6,0,1.2,0.1,1.7,0.4s0.9,0.6,1.2,1c0.3,0.4,0.6,0.9,0.8,1.4c0.2,0.5,0.3,1.1,0.3,1.7H94.4z M93.2,71.1
			c-0.2,0.8-0.3,1.6-0.3,2.4c0,0.9,0.1,1.7,0.3,2.6c0.2,0.8,0.6,1.5,1,2.1c0.5,0.6,1,1.1,1.8,1.4c0.7,0.4,1.6,0.5,2.6,0.5
			c1.6,0,2.8-0.4,3.7-1.2c0.9-0.8,1.5-1.9,1.8-3.3h-1.5c-0.2,1-0.7,1.8-1.3,2.3c-0.6,0.6-1.5,0.9-2.6,0.9c-0.7,0-1.4-0.2-1.9-0.5
			s-1-0.7-1.3-1.2s-0.6-1-0.7-1.6c-0.2-0.6-0.2-1.2-0.2-1.7h9.7c0-0.9,0-1.7-0.2-2.6s-0.5-1.6-1-2.3c-0.4-0.7-1-1.2-1.7-1.6
			s-1.6-0.6-2.6-0.6s-1.9,0.2-2.6,0.6s-1.3,0.9-1.8,1.5C93.8,69.6,93.4,70.3,93.2,71.1 M86,63.8c1.3,0,2.2,0.3,2.8,0.9
			c0.6,0.6,0.9,1.5,0.9,2.5c0,0.5-0.1,1-0.3,1.4c-0.2,0.4-0.5,0.8-0.8,1.1c-0.3,0.3-0.7,0.5-1.2,0.7s-0.9,0.2-1.4,0.2h-6.2v-6.9H86
			V63.8z M86.1,62.4h-8v17.4h1.7v-7.7H86c0.8,0,1.4,0.1,1.8,0.4s0.8,0.7,1,1.2s0.4,1,0.5,1.6s0.1,1.2,0.2,1.8c0,0.2,0,0.4,0,0.6
			s0,0.5,0.1,0.7c0,0.3,0.1,0.5,0.1,0.7c0.1,0.2,0.1,0.4,0.2,0.6h1.8c-0.2-0.2-0.3-0.5-0.4-0.9s-0.2-0.8-0.2-1.2
			c0-0.4-0.1-0.9-0.1-1.3s0-0.8,0-1.1c0-0.5-0.1-1-0.2-1.5c-0.1-0.4-0.3-0.8-0.5-1.2c-0.2-0.3-0.5-0.6-0.9-0.8
			c-0.4-0.2-0.8-0.4-1.4-0.5l0,0c1.1-0.2,2-0.7,2.5-1.6c0.6-0.8,0.9-1.8,0.9-2.9c0-0.8-0.1-1.5-0.4-2c-0.3-0.6-0.7-1.1-1.1-1.4
			c-0.5-0.4-1-0.6-1.7-0.8C87.5,62.5,86.8,62.4,86.1,62.4 M103.8,41.3H92.9l5.5-15.4h0.1L103.8,41.3z M141.3,52.8
			c0.8-1.4,1.2-3,1.2-5c0-1.4-0.3-2.6-0.8-3.6s-1.3-1.8-2.2-2.4s-1.9-1.2-3.1-1.6c-1.2-0.4-2.3-0.7-3.6-1c-1.2-0.3-2.3-0.5-3.5-0.8
			c-1.1-0.2-2.1-0.5-3-0.8s-1.6-0.7-2.1-1.1c-0.5-0.5-0.8-1.1-0.8-1.8c0-0.6,0.2-1.1,0.5-1.5s0.7-0.7,1.1-0.9s0.9-0.3,1.5-0.4
			c0.5-0.1,1.1-0.1,1.5-0.1c1.5,0,2.8,0.3,3.9,0.9c1.1,0.6,1.7,1.7,1.8,3.3h7.9c-0.2-1.9-0.6-3.4-1.4-4.7c-0.8-1.2-1.8-2.2-3-3
			c-1.2-0.7-2.6-1.3-4.1-1.6c-1.5-0.3-3.1-0.5-4.8-0.5c-1.6,0-3.3,0.1-4.8,0.4c-1.6,0.3-3,0.8-4.2,1.5c-1.3,0.7-2.3,1.7-3,3
			c-0.8,1.3-1.1,2.9-1.1,4.8c0,1.3,0.3,2.5,0.8,3.4s1.3,1.7,2.2,2.3c0.9,0.6,1.9,1.1,3.1,1.5s2.3,0.7,3.6,1c3,0.6,5.3,1.3,7,1.9
			c1.7,0.6,2.5,1.6,2.5,2.8c0,0.7-0.2,1.4-0.5,1.9c-0.4,0.5-0.8,0.9-1.3,1.2s-1.1,0.5-1.8,0.6c-0.6,0.1-1.3,0.2-1.9,0.2
			c-0.8,0-1.6-0.1-2.4-0.3s-1.4-0.5-2-0.9s-1.1-0.9-1.4-1.6c-0.4-0.6-0.6-1.4-0.6-2.3h-7l-12-32.1H94l-15.9,42h9.3l3.3-9.3h15.7
			l3.2,9.3h9.6l-0.8-2.2c0.3,0.2,0.5,0.5,0.9,0.7c1.3,0.8,2.8,1.4,4.5,1.8c1.7,0.4,3.4,0.5,5.2,0.5c1.7,0,3.4-0.2,5.1-0.5
			c1.7-0.3,3.1-0.9,4.4-1.7C139.5,55.2,140.5,54.1,141.3,52.8 M159.8,57.7c0.9,0,1.6-0.1,2.4-0.2V51c-0.4,0.1-0.8,0.1-1.2,0.2
			c-0.4,0-0.9,0.1-1.4,0.1c-1.4,0-2.4-0.2-2.8-0.7c-0.5-0.5-0.7-1.4-0.7-2.8v-15h6.1v-5.6H156V18h-8.3v9.1h-5.1v5.6h5.1v17.9
			c0,1.5,0.3,2.8,0.8,3.7s1.2,1.7,2.1,2.2c0.9,0.5,1.9,0.9,3.1,1c1.2,0.2,2.4,0.3,3.7,0.3C158,57.8,158.9,57.8,159.8,57.7
			 M184.7,57.5h7.9V27.1h-8.3V43c0,3.1-0.5,5.3-1.5,6.7s-2.7,2-4.9,2c-2,0-3.4-0.6-4.2-1.9c-0.8-1.2-1.2-3.1-1.2-5.6V27.1h-8.3v18.7
			c0,1.9,0.2,3.6,0.5,5.1s0.9,2.9,1.7,3.9c0.8,1.1,1.9,1.9,3.4,2.5c1.4,0.6,3.3,0.9,5.5,0.9c1.8,0,3.5-0.4,5.2-1.2s3.1-2.1,4.1-3.8
			h0.2L184.7,57.5L184.7,57.5z M211.3,57.7c0.9,0,1.6-0.1,2.4-0.2V51c-0.4,0.1-0.8,0.1-1.2,0.2c-0.4,0-0.9,0.1-1.4,0.1
			c-1.4,0-2.4-0.2-2.8-0.7c-0.5-0.5-0.7-1.4-0.7-2.8v-15h6.1v-5.6h-6.1V18h-8.3v9.1h-5.1v5.6h5.1v17.9c0,1.5,0.3,2.8,0.8,3.7
			s1.2,1.7,2.1,2.2c0.9,0.5,1.9,0.9,3.1,1c1.2,0.2,2.4,0.3,3.7,0.3C209.6,57.8,210.4,57.8,211.3,57.7 M236.1,39h-13.6
			c0-0.6,0.2-1.3,0.4-2s0.6-1.4,1.1-2.1c0.5-0.7,1.2-1.2,2.1-1.7s2-0.7,3.3-0.7c2,0,3.6,0.6,4.6,1.6C235,35.3,235.7,36.9,236.1,39
			 M244.4,44.3c0.2-2.4,0-4.6-0.6-6.8c-0.5-2.2-1.4-4.1-2.7-5.8c-1.2-1.7-2.8-3-4.7-4s-4.2-1.5-6.8-1.5c-2.3,0-4.4,0.4-6.3,1.2
			c-1.9,0.8-3.5,2-4.9,3.4s-2.4,3.1-3.2,5.1c-0.7,2-1.1,4.1-1.1,6.3c0,2.3,0.4,4.5,1.1,6.5c0.7,2,1.8,3.6,3.1,5.1
			c1.3,1.4,3,2.5,4.9,3.3s4.1,1.1,6.5,1.1c3.4,0,6.4-0.8,8.8-2.3c2.4-1.6,4.2-4.2,5.4-7.8h-7.3c-0.3,0.9-1,1.8-2.2,2.7
			c-1.2,0.8-2.7,1.3-4.4,1.3c-2.4,0-4.2-0.6-5.4-1.8c-1.3-1.2-1.9-3.2-2.1-5.9L244.4,44.3L244.4,44.3z"/>
	</g>
</g>
</svg>
