<?xml version="1.0"?>
<svg xmlns="http://www.w3.org/2000/svg" viewBox="0 0 459.12 79.52">
  <defs>
    <style>.cls-1{fill:#1b3f66;}.cls-2{fill:#464647;}</style>
  </defs>
  <title>first-national</title>
  <g id="Layer_2" data-name="Layer 2">
    <g id="Layer_1-2" data-name="Layer 1">
      <path class="cls-1" d="M42.08,0C29.23,5,17.45,11.57,8.87,22.56,5.45,27,2.93,32,0,36.82V0Z"/>
      <path class="cls-1" d="M81.22,0C86.54,2.49,88,6.83,87.48,12.32c-.3,3.6-.06,7.24-.06,11.14C70.09,11.13,52.65,13.9,35.35,21,29,23.67,23.21,27.8,17.45,31.67A26.62,26.62,0,0,0,11,38.51c-.73,1-.13,3-.14,4.52,1.3-.09,2.8.19,3.89-.34,8.67-4.25,17-9.18,26-12.86,11.87-4.9,24.35-7.16,37.09-3.24,9.78,3,12.1,9,7.11,17.8-4.19,7.39-10.7,12.32-18.08,16.4C54.51,67.6,41.7,72.48,27.34,71.43a38.59,38.59,0,0,1-12.2-3C4.77,64,1.55,56.32,5,45.61,10.85,27.29,37,8.46,56.34,8.94c3.53.09,7,1.62,10.72,2.52C68.43,7,67.08,3.37,64.58,0ZM43.62,29.43,25,61.15H62.4Z"/>
      <path class="cls-1" d="M0,60.07c4.44,8,9.8,15.11,19.6,18.39C9.14,80.32,5.81,79.44,0,73.63Z"/>
      <path class="cls-2" d="M103.73,0q.06,38.66.11,77.3c0,.29-.24.57-1.09.86V0Z"/>
      <path class="cls-1" d="M49,78.06c14.73-3.32,27.1-11.17,38.19-22.79,0,6.42.57,12-.18,17.45C86.39,77,82.47,79,78.3,79.08c-9.74.2-19.49,0-29.23,0-.12,0-.33-.1-.34-.17A3.39,3.39,0,0,1,49,78.06Z"/>
      <path class="cls-2" d="M150.08,7.25a5.26,5.26,0,0,1-5.27,5.27,5.49,5.49,0,0,1-5.27-5.71,5.14,5.14,0,0,1,5.27-5A5.34,5.34,0,0,1,150.08,7.25Zm-9.36,8.12H149V48.29h-8.25Z"/>
      <path class="cls-2" d="M161.62,19.53c1.56-3.42,4.22-5,6.95-5a7.94,7.94,0,0,1,3.59.86l-2.55,7.07a5.62,5.62,0,0,0-2.4-.68c-2.37,0-4.23,2.73-4.41,7.56-.06,1.8-.06,3.84-.06,5.65V48.29h-8.26V15.37h7.14Z"/>
      <path class="cls-2" d="M182.83,34c-5.27-2.67-7.93-5.88-7.93-10,0-5.15,4.35-9.48,10.66-9.48A13.41,13.41,0,0,1,196.42,20l-5.09,5.15c-1.86-1.87-3.73-3.05-5.71-3.05-1.67,0-3,.68-3,2s1.18,1.8,3,2.72l3,1.56C194.12,31.12,197,34,197,38.87c0,5.89-4.65,10.29-11.84,10.29a14,14,0,0,1-11.54-5.64l5.09-5.59c1.92,2.24,4.71,3.85,6.87,3.85s3.67-1.18,3.67-2.67-1.37-2.48-3.67-3.64Z"/>
      <path class="cls-2" d="M204.55,3.22h8.24V15.37h4.91v7.07h-4.91V48.29h-8.24V22.44h-4.22V15.37h4.22Z"/>
      <path class="cls-1" d="M230.42,18.72c3.16-2.67,6.07-4.21,9.72-4.21,6.15,0,11.3,4.21,11.3,11.28v22.5h-8.26V32.72c0-6.49-.56-10.66-5.57-10.66A6.47,6.47,0,0,0,232,25.23c-1.66,2.66-1.6,5.65-1.6,9.05v14h-8.26V15.37h8.26Z"/>
      <path class="cls-1" d="M283.75,44.82a13.66,13.66,0,0,1-10.16,4.34c-8.37,0-15.69-7.2-15.69-17.3,0-10.28,7-17.35,15.5-17.35A14.1,14.1,0,0,1,283.75,19v-3.6H292V48.29h-8.26Zm-17.53-13c0,5.65,3.71,9.8,8.86,9.8s9.05-3.85,9.05-9.86c0-5.77-3.84-9.68-9.05-9.68C269.62,22.06,266.22,26.41,266.22,31.8Z"/>
      <path class="cls-1" d="M301.32,3.22h8.24V15.37h4.91v7.07h-4.91V48.29h-8.24V22.44H297.1V15.37h4.22Z"/>
      <path class="cls-1" d="M327.49,7.25a5.26,5.26,0,0,1-5.27,5.27A5.49,5.49,0,0,1,317,6.81a5.14,5.14,0,0,1,5.27-5A5.34,5.34,0,0,1,327.49,7.25Zm-9.36,8.12h8.25V48.29h-8.25Z"/>
      <path class="cls-1" d="M366.8,31.8a17.26,17.26,0,1,1-17.47-17.29A17.15,17.15,0,0,1,366.8,31.8Zm-26.23,0c0,5.57,3.55,9.54,8.88,9.54,5.09,0,9.06-3.71,9.06-9.48,0-5.57-3.67-9.54-9.06-9.54C344.3,22.32,340.57,26.35,340.57,31.8Z"/>
      <path class="cls-1" d="M381.77,18.72c3.16-2.67,6.07-4.21,9.72-4.21,6.15,0,11.3,4.21,11.3,11.28v22.5h-8.26V32.72c0-6.49-.56-10.66-5.57-10.66a6.47,6.47,0,0,0-5.59,3.17c-1.66,2.66-1.6,5.65-1.6,9.05v14h-8.26V15.37h8.26Z"/>
      <path class="cls-1" d="M435.1,44.82a13.66,13.66,0,0,1-10.16,4.34c-8.37,0-15.69-7.2-15.69-17.3,0-10.28,6.95-17.35,15.5-17.35A14.1,14.1,0,0,1,435.1,19v-3.6h8.26V48.29H435.1Zm-17.53-13c0,5.65,3.71,9.8,8.86,9.8s9.05-3.85,9.05-9.86c0-5.77-3.84-9.68-9.05-9.68C421,22.06,417.57,26.41,417.57,31.8Z"/>
      <path class="cls-1" d="M450.87,2.66h8.25V48.29h-8.25Z"/>
      <path class="cls-2" d="M119.46,16h3c.07-7.38-.68-13.57,8-13.57a16,16,0,0,1,5.83,1.16V10a10.82,10.82,0,0,0-3-.56c-3.22,0-2.54,1.68-2.6,6.64h5.21v7h-5.21V49h-8.26V23.05h-3Z"/>
      <path class="cls-2" d="M257.9,59.74h4.44a14.38,14.38,0,0,1,4.49.48A4.79,4.79,0,0,1,270,64.88a4.61,4.61,0,0,1-.56,2.39c-1,2-2.94,2.79-6.13,2.79l7,9h-2.4l-6.93-9h-1.1v9H257.9Zm1.94,1.88v6.56c1.08,0,2.18,0,3.2,0,1.66,0,3-.16,3.79-.83a3.26,3.26,0,0,0,1.15-2.5c0-1.89-1.28-3.26-4.19-3.26Z"/>
      <path class="cls-2" d="M279.47,59.74h11v1.88h-9.08v6.05h9.08v1.88h-9.08v7.61h9.08V79h-11Z"/>
      <path class="cls-2" d="M307.1,59.74l9,19.3H314l-3-6.34h-8.33l-3,6.34H297.5l9.13-19.3Zm-.25,4.09-3.33,7h6.61Z"/>
      <path class="cls-2" d="M324.43,59.74h1.93V77.16h7.42V79h-9.35Z"/>
      <path class="cls-2" d="M355,59.74h11v1.88h-9.09v6.05H366v1.88h-9.09v7.61H366V79H355Z"/>
      <path class="cls-2" d="M382.13,63.61c-1-1.37-1.95-2.36-3.54-2.36A2.44,2.44,0,0,0,376,63.69a3.91,3.91,0,0,0,1.72,3c3.63,2.69,6.29,4.54,6.29,7.65a5.31,5.31,0,0,1-5.43,5.19c-2.66,0-4.41-1.48-5.83-4.08l1.64-1c1.15,2.12,2.55,3.19,4,3.19A3.42,3.42,0,0,0,382,74.36c0-2.12-2-3.33-6.38-6.88a5,5,0,0,1-1.63-3.7,4.48,4.48,0,0,1,4.67-4.53c2.37,0,3.79,1.44,5.06,3.16Z"/>
      <path class="cls-2" d="M391.54,61.62V59.74h10.59v1.88h-4.3V79h-1.94V61.62Z"/>
      <path class="cls-2" d="M416,59.74,425,79H422.9l-3-6.34h-8.33l-3,6.34h-2.15l9.13-19.3Zm-.25,4.09-3.33,7H419Z"/>
      <path class="cls-2" d="M429.2,61.62V59.74h10.59v1.88h-4.3V79h-1.94V61.62Z"/>
      <path class="cls-2" d="M447.92,59.74h11v1.88h-9.09v6.05h9.09v1.88h-9.09v7.61h9.09V79h-11Z"/>
    </g>
  </g>
</svg>
