<?xml version="1.0"?>
<svg xmlns="http://www.w3.org/2000/svg" viewBox="0 0 610.65 109.99">
  <defs>
    <style>.cls-1{fill:#f77c0d;}</style>
  </defs>
  <title>Asset 1</title>
  <g id="Layer_2" data-name="Layer 2">
    <g id="Layer_1-2" data-name="Layer 1">
      <polygon class="cls-1" points="57.83 0 71.48 42.01 115.65 42.01 79.92 67.98 93.57 109.99 57.83 84.03 22.09 109.99 35.74 67.98 0 42.01 44.18 42.01 57.83 0"/>
      <polygon class="cls-1" points="181.58 0 195.23 42.01 239.4 42.01 203.66 67.98 217.32 109.99 181.58 84.03 145.84 109.99 159.49 67.98 123.75 42.01 167.93 42.01 181.58 0"/>
      <polygon class="cls-1" points="305.33 0 318.98 42.01 363.15 42.01 327.42 67.98 341.07 109.99 305.33 84.03 269.59 109.99 283.24 67.98 247.5 42.01 291.68 42.01 305.33 0"/>
      <polygon class="cls-1" points="429.08 0 442.73 42.01 486.9 42.01 451.17 67.98 464.82 109.99 429.08 84.03 393.34 109.99 406.99 67.98 371.25 42.01 415.43 42.01 429.08 0"/>
      <polygon class="cls-1" points="552.83 0 566.48 42.01 610.65 42.01 574.91 67.98 588.57 109.99 552.83 84.03 517.09 109.99 530.74 67.98 495 42.01 539.18 42.01 552.83 0"/>
    </g>
  </g>
</svg>
