<?xml version="1.0"?>
<svg xmlns="http://www.w3.org/2000/svg" viewBox="0 0 510.24 90.98">
  <defs>
    <style>.cls-1{fill:#e31837;}.cls-2{fill:#231f20;}</style>
  </defs>
  <title>gj-gardner</title>
  <g id="Layer_2" data-name="Layer 2">
    <g id="Layer_1-2" data-name="Layer 1">
      <polyline class="cls-1" points="396.41 50.04 396.41 28.3 400.76 28.3 400.76 36.83 409.24 36.83 409.24 28.3 413.59 28.3 413.59 50.04 409.24 50.04 409.24 40.52 400.76 40.52 400.76 50.04 396.41 50.04"/>
      <path class="cls-1" d="M417.1,39.3a14,14,0,0,1,1-5.58,10.52,10.52,0,0,1,2-3,8.33,8.33,0,0,1,2.77-2,11.76,11.76,0,0,1,4.63-.86,10,10,0,0,1,7.59,3c1.9,2,2.85,4.75,2.85,8.3s-.94,6.26-2.82,8.25a11.16,11.16,0,0,1-15.17,0q-2.83-3-2.83-8.16m4.46-.15a8.28,8.28,0,0,0,1.68,5.62,5.5,5.5,0,0,0,4.29,1.91,5.44,5.44,0,0,0,4.27-1.89q1.67-1.9,1.66-5.7c0-2.49-.54-4.36-1.62-5.59a5.95,5.95,0,0,0-8.64,0c-1.1,1.25-1.64,3.12-1.64,5.63"/>
      <polyline class="cls-1" points="440.62 50.04 440.62 28.3 447.15 28.3 450.98 43.13 454.81 28.3 461.34 28.3 461.34 50.04 457.31 50.04 457.29 32.92 453.02 50.04 448.87 50.04 444.67 32.92 444.65 50.04 440.62 50.04"/>
      <polyline class="cls-1" points="464.87 50.04 464.87 28.3 480.8 28.3 480.8 31.98 469.21 31.98 469.21 36.77 479.97 36.77 479.97 40.46 469.21 40.46 469.21 46.35 481.23 46.35 481.23 50.04 464.87 50.04"/>
      <path class="cls-1" d="M483.62,42.94l4.19-.44a5.26,5.26,0,0,0,1.56,3.17,4.68,4.68,0,0,0,3.16,1,4.77,4.77,0,0,0,3.18-.9,2.69,2.69,0,0,0,1.07-2.1,2,2,0,0,0-.45-1.32,3.51,3.51,0,0,0-1.56-.94c-.5-.18-1.66-.49-3.46-1a11.59,11.59,0,0,1-4.89-2.14,5.74,5.74,0,0,1-1.05-7.47,5.85,5.85,0,0,1,2.68-2.19,10.78,10.78,0,0,1,4.24-.76q4.05,0,6.09,1.8a6.39,6.39,0,0,1,2.15,4.81l-4.34.16A3.75,3.75,0,0,0,495,32.27a4.38,4.38,0,0,0-2.75-.73,4.92,4.92,0,0,0-3,.79,1.57,1.57,0,0,0-.69,1.34,1.64,1.64,0,0,0,.65,1.32,11.24,11.24,0,0,0,4,1.45A20,20,0,0,1,497.89,38a5.85,5.85,0,0,1,2.38,2.21,6.92,6.92,0,0,1-.17,7,6.15,6.15,0,0,1-2.9,2.43,12.11,12.11,0,0,1-4.69.8,9.25,9.25,0,0,1-6.27-1.91,8.42,8.42,0,0,1-2.62-5.58"/>
      <polyline class="cls-1" points="384.96 23.18 510.24 23.18 510.24 19.54 384.96 19.54 384.96 23.18"/>
      <polyline class="cls-1" points="384.96 58.78 510.24 58.78 510.24 55.15 384.96 55.15 384.96 58.78"/>
      <path class="cls-2" d="M101.8,52.36c0,3.1-2.65,6.19-5.73,6.19a6.07,6.07,0,0,1-5.74-6.19c0-3.41,2.72-6.5,5.74-6.5s5.73,3,5.73,6.5"/>
      <path class="cls-2" d="M64.79,52.36c0,3.1-2.65,6.19-5.74,6.19a6.07,6.07,0,0,1-5.73-6.19c0-3.41,2.72-6.5,5.73-6.5s5.74,3,5.74,6.5"/>
      <path class="cls-2" d="M370.32,52.36c0,3.1-2.65,6.19-5.74,6.19a6.07,6.07,0,0,1-5.73-6.19c0-3.41,2.72-6.5,5.73-6.5s5.74,3,5.74,6.5"/>
      <path class="cls-2" d="M30.77,38.53V35.37c4.15.15,7.87.22,11.14.22q4.52,0,9.73-.22v2.5a24.27,24.27,0,0,0-2.79,1.29,50.77,50.77,0,0,0-.54,6.73q0,2,.54,7.89a69.22,69.22,0,0,1-11.32,3.8,44.33,44.33,0,0,1-9.44,1q-13.15,0-20.62-7.86T0,30.35Q0,17.5,7.59,9.77T29.36,2.05A49.93,49.93,0,0,1,39,3,40.54,40.54,0,0,1,47.68,5.7l.31.59a97.61,97.61,0,0,0-1.4,12.42H43.68a57,57,0,0,0-.42-6.61,13.75,13.75,0,0,0-5.63-4.35,20.49,20.49,0,0,0-8.06-1.46q-8.73,0-13.94,6.12t-5.2,16.74q0,11.34,5.45,18.26T29.3,54.33a20.1,20.1,0,0,0,9-2.4,54.89,54.89,0,0,0,.32-5.7q0-6-.61-6.64c-.42-.42-2.82-.77-7.24-1.06"/>
      <path class="cls-2" d="M66.89,4.79V1.63C71.4,1.85,75,2,77.77,2q6,0,12.15-.33V4.79a37.78,37.78,0,0,0-3.9.35,3.11,3.11,0,0,0-1.53.51,1.67,1.67,0,0,0-.49,1,62,62,0,0,0-.35,8.63l-.07,15.92-.12,12c0,6.48-.11,10.36-.27,11.64a22.2,22.2,0,0,1-2.94,8.9A24.72,24.72,0,0,1,73.52,71a10.72,10.72,0,0,1-6.3,2.39,7.6,7.6,0,0,1-2.48-.51c.15-1.82.21-3,.21-3.67s-.06-1.85-.21-3.56l.82-.43A6.14,6.14,0,0,0,70.44,68a2.52,2.52,0,0,0,2.08-.88c.48-.59.78-2.24.91-4.95.23-4.21.35-9.46.35-15.79L73.7,16.11a72.16,72.16,0,0,0-.31-9.24,1.87,1.87,0,0,0-.79-1.31c-.4-.26-2.3-.5-5.71-.77"/>
      <path class="cls-2" d="M151,38.87V35.72q6.24.21,11.14.21,4.51,0,9.74-.21v2.49a24.41,24.41,0,0,0-2.8,1.29,51,51,0,0,0-.54,6.73c0,1.32.18,4,.54,7.89a68.85,68.85,0,0,1-11.31,3.8,44.4,44.4,0,0,1-9.44,1q-13.17,0-20.63-7.86T120.2,30.69q0-12.85,7.6-20.58t21.77-7.72a49.82,49.82,0,0,1,9.58.9A40.54,40.54,0,0,1,167.88,6l.31.59a99.48,99.48,0,0,0-1.4,12.42h-2.9a54.4,54.4,0,0,0-.43-6.6,13.62,13.62,0,0,0-5.63-4.36,20.46,20.46,0,0,0-8.06-1.46q-8.73,0-13.93,6.12t-5.2,16.74q0,11.34,5.45,18.26t13.41,6.92a20.07,20.07,0,0,0,9-2.4,52.22,52.22,0,0,0,.33-5.7q0-6-.62-6.64T151,38.87"/>
      <path class="cls-2" d="M204.49,55.22v3.16l-2.64-.11c-1.37-.07-2.75-.1-4.15-.1q-3.22,0-6.1.21l-.34-.43.32-5.46-7.09,6.14a12.71,12.71,0,0,1-3.36.51,6.67,6.67,0,0,1-5.55-2.46c-1.31-1.63-2-4-2-7.18,0-3.87.89-6.61,2.66-8.19q3.48-3.12,15.31-5.58c-.05-3.06-.52-5.27-1.38-6.65a6.41,6.41,0,0,0-5.75-2.83,7.45,7.45,0,0,0-1.89.25,9.64,9.64,0,0,0-2,.8l-1.5,4.18-2.37-.67.08-1.76,0-1.73,0-1.57a44.77,44.77,0,0,1,7.46-4.68,12.65,12.65,0,0,1,4.64-.7,13.4,13.4,0,0,1,6.53,1.39A8.54,8.54,0,0,1,199,25.55a16.55,16.55,0,0,1,1.16,7q0,1.9-.19,6.86c-.09,3.39-.14,6.13-.14,8.19a40.53,40.53,0,0,0,.24,6,1.62,1.62,0,0,0,.69,1,12.9,12.9,0,0,0,3.7.7M191.58,39.11c-4,1-6.59,2-7.78,3.2A6.21,6.21,0,0,0,182,47a5.59,5.59,0,0,0,1.16,3.73,3.69,3.69,0,0,0,2.94,1.37q2.66,0,5.48-3.47V39.11"/>
      <path class="cls-2" d="M205.3,58.38V55.22a14.44,14.44,0,0,0,3.85-.47,1.52,1.52,0,0,0,.64-.74,16.21,16.21,0,0,0,.42-4.15q.15-5.7.15-10.4c0-6-.07-9.59-.23-10.71a1.85,1.85,0,0,0-.59-1.39c-.33-.27-1.74-.46-4.24-.57V23.74A43.58,43.58,0,0,0,215,21.88l3.49-1.51c.31,0,.46.25.46.74l0,.54c-.06,1.65-.08,4-.08,7.06a54.06,54.06,0,0,0,3.79-4.83,10.09,10.09,0,0,1,2.7-2.85,6.12,6.12,0,0,1,3.06-.66,6,6,0,0,1,2.18.43c-.27,2.6-.44,6.15-.54,10.63l-1.48.62a5.19,5.19,0,0,0-1.68-2.14,4.27,4.27,0,0,0-2.4-.61,5,5,0,0,0-3.4,1.22,5.49,5.49,0,0,0-1.86,2.79,62,62,0,0,0-.26,8c0,6.62.08,10.48.26,11.58a2.14,2.14,0,0,0,.61,1.5c.5.39,2.19.67,5,.82v3.16l-3.75-.11q-3.64-.1-6.24-.1c-1.66,0-3.59,0-5.81.1l-3.79.11"/>
      <path class="cls-2" d="M253.92,22V15.33a56.59,56.59,0,0,0-.23-7.25,1.56,1.56,0,0,0-.67-1,18.5,18.5,0,0,0-4.58-.41V3.81A41.54,41.54,0,0,0,262.08,0l.88.94q-.34,6.3-.37,11.94l-.27,30.72a86.85,86.85,0,0,0,.27,9.4,2.08,2.08,0,0,0,.63,1.46c.34.27,1.73.53,4.16.76v3.16q-4.2-.21-8.16-.21c-1.92,0-3.7.07-5.36.21l-.58-.47c.32-2.65.53-4.8.64-6.43-1.54,1.33-4,3.62-7.38,6.85a9.43,9.43,0,0,1-3.63.81,11.49,11.49,0,0,1-9.42-4.82q-3.78-4.82-3.78-12.83a29.89,29.89,0,0,1,.78-7.09,15.57,15.57,0,0,1,1.82-4.77,20.21,20.21,0,0,1,4.14-4.11,34.72,34.72,0,0,1,6.22-4.27,10.39,10.39,0,0,1,4.29-.88,14.81,14.81,0,0,1,3.39.41A18.23,18.23,0,0,1,253.92,22m0,8.32a11.68,11.68,0,0,0-3.62-3.91,8.31,8.31,0,0,0-4.51-1.29A6,6,0,0,0,240.41,28c-1.25,1.91-1.87,5.13-1.87,9.63s.77,8.12,2.29,10.41a6.83,6.83,0,0,0,5.84,3.44,7.17,7.17,0,0,0,4.48-1.6A6.44,6.44,0,0,0,253.56,47q.36-1.32.36-10.09V30.36"/>
      <path class="cls-2" d="M267.29,58.38V55.22c2.46-.15,3.84-.38,4.16-.68a3.41,3.41,0,0,0,.57-2q.21-4,.22-13.93c0-3.28-.05-6.11-.11-8.48a8.17,8.17,0,0,0-.27-2.58,1,1,0,0,0-.53-.47,28,28,0,0,0-4-.28V23.74a28.31,28.31,0,0,0,5.73-.91,36.17,36.17,0,0,0,6.53-2.1l.94-.36c.31,0,.46.3.46.9v.36c-.07.73-.11,2.62-.11,5.66l5.23-5.11a5.53,5.53,0,0,1,2-1.34,12,12,0,0,1,3.62-.47,11,11,0,0,1,5.89,1.43,8.48,8.48,0,0,1,3.34,4A21.31,21.31,0,0,1,302,33.62c0,1.57-.05,3.39-.14,5.45-.13,4.24-.19,7.89-.19,11a12.39,12.39,0,0,0,.36,3.64,1.59,1.59,0,0,0,.78,1,21.5,21.5,0,0,0,3.81.58v3.16l-4.22-.14-2.68-.07-7,.21-.4-.5a130.88,130.88,0,0,0,.87-15.24c0-6.62-.37-10.69-1.08-12.22a4.91,4.91,0,0,0-4.9-3,6.15,6.15,0,0,0-4,1.35,6.25,6.25,0,0,0-2.19,2.88,18.34,18.34,0,0,0-.23,4c0,9.46,0,14.86.1,16.24a4.41,4.41,0,0,0,.56,2.52c.42.39,2,.67,4.62.82v3.16q-5.94-.21-10-.21c-1.63,0-4.58.07-8.83.21"/>
      <path class="cls-2" d="M334.5,50.55l1,1.14L334,55.45a18.45,18.45,0,0,1-5.24,2.64,19.8,19.8,0,0,1-6,.89Q315.33,59,311,54t-4.27-13.88A29.31,29.31,0,0,1,308,30.78a11,11,0,0,1,3.35-5A39,39,0,0,1,316.78,22a12.84,12.84,0,0,1,6.68-1.8,12.7,12.7,0,0,1,9.25,3.56q3.65,3.55,3.64,11.45c0,.65,0,1.64-.1,3l-5.57,1.22q-2.58.2-7.5.2h-7.37c.36,4.47,1.53,7.85,3.52,10.11a9.66,9.66,0,0,0,7.57,3.39,12,12,0,0,0,3.85-.64,15.41,15.41,0,0,0,3.75-1.9m-18.91-15.1a57.55,57.55,0,0,0,6.17.33,52,52,0,0,0,5.67-.33l0-1.83c0-3.18-.51-5.51-1.55-7a4.84,4.84,0,0,0-4.15-2.19,5,5,0,0,0-3.18,1,6.1,6.1,0,0,0-2,2.9,30.9,30.9,0,0,0-1,7.07"/>
      <path class="cls-2" d="M337.63,58.38V55.22a14.52,14.52,0,0,0,3.85-.47,1.57,1.57,0,0,0,.64-.74,16.88,16.88,0,0,0,.41-4.15c.11-3.8.15-7.27.15-10.4,0-6-.07-9.59-.23-10.71a1.88,1.88,0,0,0-.58-1.39c-.34-.27-1.76-.46-4.24-.57V23.74a43.58,43.58,0,0,0,9.72-1.86l3.48-1.51c.3,0,.46.25.46.74l0,.54q-.08,2.48-.08,7.06A50.71,50.71,0,0,0,355,23.88,10.37,10.37,0,0,1,357.67,21a6.15,6.15,0,0,1,3.06-.66,6,6,0,0,1,2.18.43c-.26,2.6-.44,6.15-.54,10.63l-1.47.62a5.29,5.29,0,0,0-1.69-2.14,4.25,4.25,0,0,0-2.4-.61,5,5,0,0,0-3.4,1.22,5.49,5.49,0,0,0-1.86,2.79,64.13,64.13,0,0,0-.26,8q0,9.93.26,11.58a2.14,2.14,0,0,0,.61,1.5c.51.39,2.19.67,5,.82v3.16l-3.74-.11q-3.63-.1-6.24-.1c-1.66,0-3.59,0-5.81.1l-3.78.11"/>
      <path class="cls-2" d="M162.26,69.92V69.3c1.4,0,2.33.08,2.78.08.61,0,1.46,0,2.57-.08v.62L167,70a1.45,1.45,0,0,0-1,.25,1.4,1.4,0,0,0-.23,1q0,6.33.1,10.7c1.54-2.23,3.13-4.7,4.8-7.41,1.24-2,2.27-3.78,3.09-5.36h.41q.81,3.73,3.54,13c1.91-4.38,3.25-7.63,4-9.74a7.29,7.29,0,0,0,.46-1.69.52.52,0,0,0-.28-.49,4.19,4.19,0,0,0-1.38-.19V69.3c1,0,1.76.08,2.29.08s1.38,0,2.33-.08l-.18.62a1.63,1.63,0,0,0-1.06.27,49.12,49.12,0,0,0-2.66,6l-3.5,8.75h-1.06c-1-4.07-2.21-8.27-3.51-12.59q-5,7.66-7.88,12.59h-1.13c0-.65,0-1.22,0-1.74,0-2.23,0-4.17-.06-5.83L164,71.41a2.78,2.78,0,0,0-.16-1,.81.81,0,0,0-.34-.32,3.37,3.37,0,0,0-1.19-.16"/>
      <path class="cls-2" d="M190.18,82.29l.15.49a12.91,12.91,0,0,1-2.54,1.78,4.42,4.42,0,0,1-1.9.47,2.48,2.48,0,0,1-1.94-.75,3.05,3.05,0,0,1-.69-2.15,11.2,11.2,0,0,1,.58-3.3,7.1,7.1,0,0,1,1.34-2.62,8.76,8.76,0,0,1,2.39-1.6,3.8,3.8,0,0,1,1.64-.45,2,2,0,0,1,1.41.48,1.62,1.62,0,0,1,.51,1.24q0,3-6,4.18a12.43,12.43,0,0,0-.22,1.93,2,2,0,0,0,.5,1.42,1.62,1.62,0,0,0,1.25.53,3.53,3.53,0,0,0,1.35-.32,13.46,13.46,0,0,0,2.2-1.33m-5-2.76a6.92,6.92,0,0,0,3.24-1.31,2.6,2.6,0,0,0,1-2,1.23,1.23,0,0,0-.27-.87.92.92,0,0,0-.75-.29,2.41,2.41,0,0,0-1.32.41,2.83,2.83,0,0,0-1,1.21,11.41,11.41,0,0,0-.89,2.83"/>
      <path class="cls-2" d="M198.17,76.74l-.25-.38a22.09,22.09,0,0,1,2.83-1.92,2,2,0,0,1,.9-.28.34.34,0,0,1,.29.12.54.54,0,0,1,.11.39,5.77,5.77,0,0,1-.1,1l-.73,3.3a21.57,21.57,0,0,1,2.89-4.12,1.88,1.88,0,0,1,1.23-.66,1.82,1.82,0,0,1,.59.11,19.7,19.7,0,0,0-.37,2.38l-.33.08a.82.82,0,0,0-.69-.42,1.54,1.54,0,0,0-.92.35A5.7,5.7,0,0,0,202,78.53a11.1,11.1,0,0,0-1.13,2.79c-.07.24-.3,1.34-.72,3.32q-.66.14-1.5.39l-.18-.16a55.08,55.08,0,0,0,1.29-5.46,26.8,26.8,0,0,0,.49-3.32c0-.29-.09-.44-.28-.44a5.78,5.78,0,0,0-1.84,1.09"/>
      <path class="cls-2" d="M213,82.29l.15.49a12.64,12.64,0,0,1-2.55,1.78,4.39,4.39,0,0,1-1.9.47,2.51,2.51,0,0,1-1.94-.75,3.1,3.1,0,0,1-.68-2.15,10.89,10.89,0,0,1,.58-3.3A7.11,7.11,0,0,1,208,76.21a8.84,8.84,0,0,1,2.4-1.6,3.76,3.76,0,0,1,1.64-.45,2,2,0,0,1,1.41.48,1.62,1.62,0,0,1,.51,1.24c0,2-2,3.36-6,4.18a12.13,12.13,0,0,0-.21,1.93,2,2,0,0,0,.49,1.42,1.65,1.65,0,0,0,1.25.53,3.53,3.53,0,0,0,1.35-.32A13.89,13.89,0,0,0,213,82.29m-5-2.76a7,7,0,0,0,3.24-1.31,2.62,2.62,0,0,0,1-2,1.22,1.22,0,0,0-.26-.87,1,1,0,0,0-.75-.29,2.47,2.47,0,0,0-1.33.41,2.9,2.9,0,0,0-1,1.21,11.88,11.88,0,0,0-.88,2.83"/>
      <path class="cls-2" d="M230.34,79.25l.09-.62c1.28.05,2.35.08,3.2.08s1.64,0,2.41-.08v.62a2.33,2.33,0,0,0-1.07.27,2.05,2.05,0,0,0-.37,1,11.5,11.5,0,0,0-.35,2.51,4.85,4.85,0,0,0,.07.77v.18a8,8,0,0,0-1.61.27c-.93.28-1.75.5-2.45.66a10,10,0,0,1-1.87.16,7.1,7.1,0,0,1-5.13-1.7,6.36,6.36,0,0,1-1.76-4.78,9.42,9.42,0,0,1,2.3-6.38,8.78,8.78,0,0,1,7-3.09,15.5,15.5,0,0,1,2.49.2,13.86,13.86,0,0,1,2.34.61,11.69,11.69,0,0,0-.44,1.44c-.08.42-.17,1-.26,1.87h-.67l0-.77,0-1.09a8,8,0,0,0-2-.81,9.34,9.34,0,0,0-2.27-.25,6.37,6.37,0,0,0-3.42.82,6.13,6.13,0,0,0-2.21,2.74,10,10,0,0,0-.89,4.31,5.92,5.92,0,0,0,1.44,4.31,5.48,5.48,0,0,0,4.13,1.48,10.24,10.24,0,0,0,3.45-.58c.1-.44.27-1.35.51-2.72a2.86,2.86,0,0,0,.06-.5.58.58,0,0,0-.27-.56,13.83,13.83,0,0,0-2.48-.33"/>
      <path class="cls-2" d="M237.4,76.74l-.25-.38A22.09,22.09,0,0,1,240,74.44a2,2,0,0,1,.89-.28.35.35,0,0,1,.3.12.54.54,0,0,1,.11.39,5,5,0,0,1-.11,1l-.72,3.3a20.7,20.7,0,0,1,2.89-4.12,1.88,1.88,0,0,1,1.23-.66,1.86,1.86,0,0,1,.59.11,17.9,17.9,0,0,0-.37,2.38l-.33.08a.82.82,0,0,0-.68-.42,1.59,1.59,0,0,0-.94.35,6,6,0,0,0-1.58,1.87,11.08,11.08,0,0,0-1.12,2.79c-.07.24-.31,1.34-.72,3.32-.44.09-.94.22-1.51.39l-.18-.16a55.18,55.18,0,0,0,1.3-5.46,26.8,26.8,0,0,0,.49-3.32c0-.29-.09-.44-.28-.44a5.78,5.78,0,0,0-1.84,1.09"/>
      <path class="cls-2" d="M252.41,82.29l.16.49A13.22,13.22,0,0,1,250,84.56a4.46,4.46,0,0,1-1.9.47,2.52,2.52,0,0,1-2-.75,3.1,3.1,0,0,1-.68-2.15,10.89,10.89,0,0,1,.58-3.3,7.11,7.11,0,0,1,1.33-2.62,9,9,0,0,1,2.4-1.6,3.76,3.76,0,0,1,1.64-.45,2,2,0,0,1,1.41.48,1.63,1.63,0,0,1,.52,1.24c0,2-2,3.36-6.05,4.18a13.46,13.46,0,0,0-.21,1.93,2,2,0,0,0,.49,1.42,1.65,1.65,0,0,0,1.25.53,3.53,3.53,0,0,0,1.35-.32,13.45,13.45,0,0,0,2.21-1.33m-5-2.76a7,7,0,0,0,3.24-1.31,2.62,2.62,0,0,0,1-2,1.22,1.22,0,0,0-.26-.87.92.92,0,0,0-.75-.29,2.47,2.47,0,0,0-1.33.41,2.82,2.82,0,0,0-1,1.21,11.41,11.41,0,0,0-.89,2.83"/>
      <path class="cls-2" d="M262.65,74.16l.25.16c-.71,2.48-1.25,4.68-1.64,6.61a13.12,13.12,0,0,0-.33,2.18.52.52,0,0,0,.08.31.28.28,0,0,0,.24.11,4.28,4.28,0,0,0,1.61-1.06L263,83a13.64,13.64,0,0,1-2.23,1.66,2,2,0,0,1-.92.3.51.51,0,0,1-.43-.17.87.87,0,0,1-.14-.55,19.22,19.22,0,0,1,.73-3.73h-.09a16.4,16.4,0,0,1-3.25,3.63A3.44,3.44,0,0,1,255,85a.57.57,0,0,1-.51-.32,3.16,3.16,0,0,1-.27-1.46,14.3,14.3,0,0,1,.64-3.86,11.05,11.05,0,0,1,1.31-3.19,5.92,5.92,0,0,1,2-1.53,3.87,3.87,0,0,1,1.9-.51,4.22,4.22,0,0,1,.92.09,6.55,6.55,0,0,1,1,.29l.7-.38ZM261,75.61a5,5,0,0,0-.89-.28,3.85,3.85,0,0,0-.8-.09,3.72,3.72,0,0,0-1.52.3,1.69,1.69,0,0,0-.5.72,17.37,17.37,0,0,0-1.07,3.17,14.12,14.12,0,0,0-.48,3.38,1.07,1.07,0,0,0,.11.56.33.33,0,0,0,.28.16c.29,0,.84-.38,1.62-1.14A10.74,10.74,0,0,0,259.61,80,14.25,14.25,0,0,0,261,75.61"/>
      <path class="cls-2" d="M269.9,82.19l.27.42C268.25,84.23,267,85,266.31,85a.66.66,0,0,1-.53-.25,1.06,1.06,0,0,1-.22-.71,18.56,18.56,0,0,1,.47-2.76c.44-2,.79-3.74,1.06-5.19h-1.87l.06-.36a11.85,11.85,0,0,0,2-.79c.17-.84.37-2.11.59-3.8a9.61,9.61,0,0,0,1.72-.76l.24.2c-.17.72-.52,2.23-1,4.53l1.14,0a5.57,5.57,0,0,0,1.21-.12l.09.11a10.56,10.56,0,0,0-.24,1c-.72,0-1.51-.08-2.38-.08A62.11,62.11,0,0,0,267.33,83a.73.73,0,0,0,.11.44.32.32,0,0,0,.28.14,5.87,5.87,0,0,0,2.18-1.34"/>
      <path class="cls-2" d="M281.29,84.82v-.63l.83-.06a2.35,2.35,0,0,0,1-.19.84.84,0,0,0,.28-.44q.24-.68,1-5.7c.41-2.62.78-5.16,1.1-7.6-2.1,0-3.29,0-3.58.09a1,1,0,0,0-.62.26A3.35,3.35,0,0,0,280.8,72l-.22.91H280l.29-2.45c0-.3,0-.69,0-1.15q3.51.08,5.94.08t6.58-.08a35.18,35.18,0,0,0-.6,3.6h-.61l.07-1.79a.68.68,0,0,0-.41-.71,24.17,24.17,0,0,0-3.85-.2q-2.09,12.19-2.08,13.24a.56.56,0,0,0,.27.56,7.54,7.54,0,0,0,1.88.19l-.08.63c-1-.06-2.06-.09-3.1-.09s-2.09,0-3,.09"/>
      <path class="cls-2" d="M291.38,81.51a7.74,7.74,0,0,1,1.77-5.42,5.22,5.22,0,0,1,3.9-1.93,2.83,2.83,0,0,1,2.19.85,3.54,3.54,0,0,1,.79,2.47,9.1,9.1,0,0,1-.87,3.86,6.8,6.8,0,0,1-2.2,2.77,4.68,4.68,0,0,1-2.68.92,2.75,2.75,0,0,1-2.14-.86,4,4,0,0,1-.76-2.66m1.67-.15a3.48,3.48,0,0,0,.54,2.19,1.81,1.81,0,0,0,1.51.66,2.48,2.48,0,0,0,2.24-1.63,10.77,10.77,0,0,0,1-4.75,3.62,3.62,0,0,0-.55-2.25,1.93,1.93,0,0,0-1.58-.66,2.15,2.15,0,0,0-1.47.56,5.27,5.27,0,0,0-1.17,2.24,11.77,11.77,0,0,0-.54,3.64"/>
      <path class="cls-2" d="M311.64,76.37l-1.43,0a7.22,7.22,0,0,1,.06.74,4.2,4.2,0,0,1-.48,1.83,4.84,4.84,0,0,1-1.21,1.61,6.66,6.66,0,0,1-2.11,1.09,1.5,1.5,0,0,0-.46,1,1.08,1.08,0,0,0,.2.6,5.39,5.39,0,0,0,1,.94,15.54,15.54,0,0,1,2,1.79,2.55,2.55,0,0,1,.58,1.58,2.69,2.69,0,0,1-1.25,2.23,6.92,6.92,0,0,1-4.12,1.2,4.75,4.75,0,0,1-2.93-.76,2.31,2.31,0,0,1-1-1.88,3.39,3.39,0,0,1,1-2.29,7.2,7.2,0,0,1,3.19-1.77,1,1,0,0,1-.36-.68.87.87,0,0,1,.19-.57,16.46,16.46,0,0,1,1.29-1.25,5.38,5.38,0,0,1-.61,0A2.58,2.58,0,0,1,302.43,79a4.9,4.9,0,0,1,4.9-4.85,3.57,3.57,0,0,1,1.51.28,2.63,2.63,0,0,1,1,.93,17.2,17.2,0,0,0,1.93-.13l-.14,1.13Zm-6.35,8.45a5.49,5.49,0,0,0-2.57,1.35,2.67,2.67,0,0,0-.83,1.89,2.07,2.07,0,0,0,.8,1.67,3.55,3.55,0,0,0,2.29.65,3.92,3.92,0,0,0,2.41-.67,1.89,1.89,0,0,0,.88-1.54,1.57,1.57,0,0,0-.22-.81,5.43,5.43,0,0,0-1.14-1.25l-1.62-1.29Zm3.33-7.53a3.43,3.43,0,0,0-.22-1.41,1.8,1.8,0,0,0-.68-.74,1.93,1.93,0,0,0-1.08-.28,2.24,2.24,0,0,0-1.85.87,4.67,4.67,0,0,0-.8,2.88,2.69,2.69,0,0,0,.56,1.85,1.92,1.92,0,0,0,1.5.62,2.1,2.1,0,0,0,1.24-.38,3,3,0,0,0,.92-1.37,5.13,5.13,0,0,0,.41-2"/>
      <path class="cls-2" d="M319.1,82.29l.15.49a12.92,12.92,0,0,1-2.55,1.78,4.39,4.39,0,0,1-1.9.47,2.49,2.49,0,0,1-1.94-.75,3.1,3.1,0,0,1-.68-2.15,10.89,10.89,0,0,1,.58-3.3,7,7,0,0,1,1.34-2.62,8.53,8.53,0,0,1,2.38-1.6,3.8,3.8,0,0,1,1.65-.45,2,2,0,0,1,1.4.48,1.62,1.62,0,0,1,.51,1.24q0,3-6,4.18a13.83,13.83,0,0,0-.22,1.93,2,2,0,0,0,.5,1.42,1.65,1.65,0,0,0,1.25.53,3.53,3.53,0,0,0,1.35-.32,13.89,13.89,0,0,0,2.21-1.33m-5-2.76a7,7,0,0,0,3.24-1.31,2.63,2.63,0,0,0,1-2,1.27,1.27,0,0,0-.27-.87,1,1,0,0,0-.75-.29,2.47,2.47,0,0,0-1.33.41,2.82,2.82,0,0,0-1,1.21,11.41,11.41,0,0,0-.89,2.83"/>
      <path class="cls-2" d="M326.34,82.19l.26.42c-1.91,1.62-3.2,2.42-3.85,2.42a.68.68,0,0,1-.54-.25,1.11,1.11,0,0,1-.21-.71,20.12,20.12,0,0,1,.47-2.76c.44-2,.79-3.74,1-5.19h-1.85l.05-.36a11.85,11.85,0,0,0,1.95-.79c.17-.84.37-2.11.59-3.8a9.61,9.61,0,0,0,1.72-.76l.24.2c-.18.72-.52,2.23-1,4.53l1.14,0a5.57,5.57,0,0,0,1.21-.12l.09.11a8.31,8.31,0,0,0-.24,1c-.72,0-1.51-.08-2.39-.08A63.51,63.51,0,0,0,323.77,83a.73.73,0,0,0,.11.44.32.32,0,0,0,.28.14,5.87,5.87,0,0,0,2.18-1.34"/>
      <path class="cls-2" d="M328.3,85l-.18-.18c.56-2,1.3-5.37,2.22-10.17.48-2.54.73-4,.73-4.23s-.11-.49-.32-.55a9.93,9.93,0,0,0-1.53-.05l.06-.45a16.49,16.49,0,0,0,3.61-.86l.23.23q-1.77,8-2.11,10.1a16.56,16.56,0,0,1,3.7-3.68,5.18,5.18,0,0,1,2.57-1,.64.64,0,0,1,.49.19.81.81,0,0,1,.18.57,5.28,5.28,0,0,1-.08.85c-.14.72-.47,2.13-1,4.24a22.2,22.2,0,0,0-.66,3.25c0,.25.11.38.33.38a.87.87,0,0,0,.36-.09,8.43,8.43,0,0,0,.88-.55l.65-.42.2.41A30.68,30.68,0,0,1,336,84.8a1.8,1.8,0,0,1-.82.23.61.61,0,0,1-.5-.23,1,1,0,0,1-.19-.63,16,16,0,0,1,.5-2.46,43.79,43.79,0,0,0,1.19-5.54.75.75,0,0,0-.13-.47.43.43,0,0,0-.35-.15,3.82,3.82,0,0,0-1.93,1,8.77,8.77,0,0,0-2.57,3,17.55,17.55,0,0,0-1.36,5.08,7,7,0,0,0-1.51.36"/>
      <path class="cls-2" d="M346.19,82.29l.15.49a12.92,12.92,0,0,1-2.55,1.78,4.36,4.36,0,0,1-1.9.47,2.47,2.47,0,0,1-1.93-.75,3.05,3.05,0,0,1-.69-2.15,10.89,10.89,0,0,1,.58-3.3,7.26,7.26,0,0,1,1.33-2.62,8.92,8.92,0,0,1,2.39-1.6,3.8,3.8,0,0,1,1.65-.45,2,2,0,0,1,1.41.48,1.62,1.62,0,0,1,.51,1.24c0,2-2,3.36-6,4.18a12.13,12.13,0,0,0-.21,1.93,2,2,0,0,0,.49,1.42,1.66,1.66,0,0,0,1.26.53,3.53,3.53,0,0,0,1.34-.32,13.89,13.89,0,0,0,2.21-1.33m-5-2.76a7,7,0,0,0,3.24-1.31,2.63,2.63,0,0,0,1-2,1.23,1.23,0,0,0-.27-.87.94.94,0,0,0-.75-.29,2.47,2.47,0,0,0-1.33.41,3,3,0,0,0-1,1.21,11.88,11.88,0,0,0-.88,2.83"/>
      <path class="cls-2" d="M349.05,76.74l-.25-.38a22.82,22.82,0,0,1,2.83-1.92,2,2,0,0,1,.89-.28.38.38,0,0,1,.31.12.65.65,0,0,1,.11.39,7.34,7.34,0,0,1-.11,1l-.73,3.3A21.13,21.13,0,0,1,355,74.82a1.86,1.86,0,0,1,1.23-.66,1.82,1.82,0,0,1,.59.11,19.7,19.7,0,0,0-.37,2.38l-.33.08a.82.82,0,0,0-.69-.42,1.59,1.59,0,0,0-.93.35,5.81,5.81,0,0,0-1.57,1.87,10.74,10.74,0,0,0-1.13,2.79c-.07.24-.3,1.34-.72,3.32-.44.09-.95.22-1.5.39l-.18-.16q.8-2.78,1.29-5.46a26.8,26.8,0,0,0,.49-3.32c0-.29-.1-.44-.28-.44a5.9,5.9,0,0,0-1.84,1.09"/>
      <path class="cls-2" d="M159.57,69l-.7,6h-2l1.83-6ZM156,69l-.7,6h-2l1.81-6H156"/>
      <path class="cls-2" d="M361.18,75l.7-6h2l-1.83,6Zm3.61,0,.71-6h2l-1.81,6h-.89"/>
      <polyline class="cls-2" points="194.48 74.98 195.19 69 197.2 69 195.37 74.98 194.48 74.98"/>
    </g>
  </g>
</svg>
