<?xml version="1.0"?>
<svg xmlns="http://www.w3.org/2000/svg" viewBox="0 0 126 126">
  <defs>
    <style>.cls-1{fill:#022055;}.cls-2{fill:none;stroke:#022055;stroke-miterlimit:10;stroke-width:6px;}</style>
  </defs>
  <g id="Layer_2" data-name="Layer 2">
    <g id="Layer_1-2" data-name="Layer 1">
      <path class="cls-1" d="M31.76,66.62H58V64.34H30.62a1.14,1.14,0,0,0-1.14,1.14h0V92.84h2.28Z"/>
      <path class="cls-1" d="M31.76,31.28H58V29H30.62a1.14,1.14,0,0,0-1.14,1.14h0V57.5h2.28Z"/>
      <path class="cls-1" d="M96.88,43.58l1.64-1.09-1.27-1.9-1.63,1.09a12.58,12.58,0,0,1-7.29,2.09l-2.81-6a15.13,15.13,0,0,0,3.15.35,14.82,14.82,0,0,0,8.21-2.5l1.64-1.09-1.27-1.9L95.62,33.7A12.51,12.51,0,0,1,84.22,35l-1.48-3.17a3.42,3.42,0,0,0-4.55-1.66,3.55,3.55,0,0,0-.8.52,14.74,14.74,0,0,0-14.85.77V29H60.26V59.78H29.48v2.28H60.26V95.12H29.48V97.4H61.4a1.12,1.12,0,0,0,1.14-1.13h0V90l1.13-.75a12.59,12.59,0,0,1,10.27-1.64v8.62a1.14,1.14,0,0,0,1.14,1.14h9.13a1.14,1.14,0,0,0,1.14-1.13h0V93.57a14.82,14.82,0,0,0,11.53-2.11l1.64-1.09-1.27-1.89-1.63,1.09a12.63,12.63,0,0,1-10.27,1.64V85.59a14.82,14.82,0,0,0,11.53-2.11l1.64-1.09L97.25,80.5l-1.63,1.09a12.63,12.63,0,0,1-10.27,1.64V77.61A14.82,14.82,0,0,0,96.88,75.5l1.64-1.09-1.27-1.9-1.63,1.1a12.63,12.63,0,0,1-10.27,1.63V71.18A1.14,1.14,0,0,0,84.21,70H83.07V68.92a14.7,14.7,0,0,0,13.81-1.4l1.64-1.09-1.27-1.9-1.63,1.1a12.44,12.44,0,0,1-12.55.75V63.2h5.37a5.67,5.67,0,0,0,4-1.68h0a14.82,14.82,0,0,0,4.4-2l1.64-1.09-1.27-1.9-1.63,1.09a12.1,12.1,0,0,1-1.57.88,5.63,5.63,0,0,0-.44-3.43l-.77-1.65a14.32,14.32,0,0,0,4-1.88l1.64-1.09-1.27-1.9-1.63,1.09a12.37,12.37,0,0,1-3.76,1.69L89.39,46A14.86,14.86,0,0,0,96.88,43.58ZM63.67,33.42a12.45,12.45,0,0,1,12.49-.79l-2.22,4.76a15,15,0,0,0-11.4,2V34.17ZM76.22,70a14.74,14.74,0,0,0-13.68,1.31V66.09l1.13-.75a12.46,12.46,0,0,1,12.55-.76V70Zm-13.68,4,1.13-.75a12.48,12.48,0,0,1,10.27-1.65V77.3a14.89,14.89,0,0,0-11.4,2Zm0-10.71V58.11l1.13-.75a12.64,12.64,0,0,1,1.57-.88,5.59,5.59,0,0,0,1.52,5A14.56,14.56,0,0,0,62.54,63.36Zm3.83-9.75a14.8,14.8,0,0,0-3.83,1.77V50.13l1.13-.75a12.48,12.48,0,0,1,5.62-2Zm4-8.61a14.72,14.72,0,0,0-7.85,2.4V42.15l1.13-.75a12.59,12.59,0,0,1,9.27-1.87ZM62.54,87.31V82.05l1.13-.75a12.59,12.59,0,0,1,10.27-1.64v5.62A14.89,14.89,0,0,0,62.54,87.31Zm20.53,7.81H76.22V72.32h6.85ZM78.5,70V57.5a1.14,1.14,0,0,1,2.28,0V70Zm12.83-10.7a3.4,3.4,0,0,1-2.89,1.58H83.07V57.5a3.43,3.43,0,0,0-6.85,0v3.42H70.84a3.42,3.42,0,0,1-3.42-3.42,3.27,3.27,0,0,1,.33-1.44L78.61,32.77a1.14,1.14,0,0,1,1.52-.55,1.17,1.17,0,0,1,.55.55L91.54,56.06A3.39,3.39,0,0,1,91.33,59.34Z"/>
      <circle class="cls-2" cx="63" cy="63" r="60"/>
    </g>
  </g>
</svg>
