<?xml version="1.0"?>
<svg xmlns="http://www.w3.org/2000/svg" viewBox="0 0 459.61 84.32">
  <defs>
    <style>.cls-1{fill:#231f20;}</style>
  </defs>
  <title>ray-white</title>
  <g id="Layer_2" data-name="Layer 2">
    <g id="Layer_1-2" data-name="Layer 1">
      <path d="M124.13,84.32c4-6.85,7.55-13.37,11.73-20.34-3-15.35-6.38-30.34-9.53-46l15.93-.11c1.52,9,3.5,17.78,5.24,26.5,5.69-8.6,9.88-17.67,15.1-26.5H178c-12.21,22.31-25.22,44.29-38.12,66.49Z"/>
      <path d="M443,38.86c-.6-11.82-10.92-20.08-18-21.39-11.21-2.07-21.77,5.19-27.31,11.16-7.3,7.85-9.9,20.2-7.1,26.86s6.21,9.91,8.48,11.27a30.25,30.25,0,0,0,7.9,3.43,30.87,30.87,0,0,0,14.1-.72c7.25-2.22,13.22-5.68,18.57-14.56H424.31c-2.23,1.77-5.53,3.84-12.32,2.78a8.68,8.68,0,0,1-5.88-3.19c-1-1.45-2.38-2.74-2.27-5.29l37.44-.12c1.87-2.73,1.93-6.64,1.74-10.23m-37.08.23A23.22,23.22,0,0,1,409,34.8c-.05,0,0,0,.17-.21.37-.41.21-.23-.17.21.27-.22,3.29-3.14,6.55-4,3-.78,7.26-.39,8.64.39a14.42,14.42,0,0,1,2.69,2.09,9.18,9.18,0,0,1,2.78,5.81Z"/>
      <path d="M104.69,17.82c-.35,1.23-.79,3.7-1.4,6.28-.54-4.18-5.63-8.54-11.16-8.68C79.64,15.09,72.49,20.7,66,29.07c-6.11,7.85-8.24,20.9-4.36,29.21S74.14,69,80.94,69s14.44-7.16,14.91-7.27c.11,2-.58,4.07-.92,6.16H110.5c3.6-16.74,6.87-33.6,9.76-50.11Zm-4.42,26.65c-2.09,6.29-8.71,9.74-11.19,10.18s-6.89.4-9.59-.87-4.3-4.3-4.36-9.45S79.9,33,85,30.82c4.08-1.75,8.58-.87,12.07,1s4.5,7.86,3.2,12.64"/>
      <path d="M359.68,68.16c2-12.67,7-39.06,7-39.06h-7.33l2.22-11.28h7.55c1.28-5.34,2.21-10.92,3.37-16l14.88.11c-1.14,5.67-1.88,10-2.91,15.93a58.08,58.08,0,0,0,7,.12,86.76,86.76,0,0,1-2.09,11.39h-7c-2.8,12.79-5.24,25.92-7.9,38.83Z"/>
      <path d="M339.8,17.82l14.52.12c-2.9,16.5-6.39,33.71-9.64,50.22H329.8c3.25-16.62,6.17-33.26,10-50.34"/>
      <path d="M312,41.13c.93-4.5-.37-8.43-2.41-9.87s-4.33-1.24-7.27-.44c-3.21.87-5.37,3-6.82,8.42-1.1,4-4,18.58-6,28.81H274.8c4.43-22.09,8.52-44.06,13-66.16h14.64c-1.27,6.63-2.66,13.72-3.72,20.35,3.15-2.09,5.41-4.13,10.94-5.12s10.61-.11,15.1,5c5.5,6.25,2.77,14.94,1.74,20.17-.81,4-4.77,21.85-5.68,25.87H306.09s5-22.52,5.94-27"/>
      <path d="M234.13,28.29c-6.28,13.83-11.4,26.16-17.1,39.87H200.87c-1.15-22.09-2.43-43.94-3.6-66.26h16.16L215.76,40c.49-1.08,11.05-25.8,16.49-38.12h14.08c.23,12.67.81,25.35,1.26,38.12C254.11,27.71,259,14.68,265.27,1.9H281.2s-19.88,45.33-29.42,66.26h-16c-.58-13.25-.92-26.39-1.62-39.87"/>
      <path d="M51.32,1.9C48.41.3,43.88.28,43.18.16,32.49-.19,24,.16,13.36,0,8.94,23.17,4.3,45.25,0,68.17H15.34c1.51-7.21,3-14.54,4.53-21.75,5.82,7,10.7,14.3,16.16,21.51H54.87L37,45.15C39.41,44.33,51,40,54.87,33.87,57.34,30,59.16,27,60,21.54c.93-9.88-1.34-15.62-8.66-19.64M40.57,28.2c-2.47,2.33-7.06,3.49-10.32,3.49H22.84c1.05-6.16,2.32-12.35,3.49-18.74,6-1.17,10.14-1.13,14.54.43,2,.73,3.62,4.18,3.47,7.13a11.44,11.44,0,0,1-3.77,7.69"/>
      <path d="M340.37,12.94c.71-3.72,1.28-7.44,2.22-11h15c-.72,3.5-1.48,7.27-2.09,11Z"/>
      <path class="cls-1" d="M453.3,58.62A6.3,6.3,0,1,1,447,64.89,6.26,6.26,0,0,1,453.3,58.62Zm0,11.67a5.37,5.37,0,1,0-5.21-5.4A5.19,5.19,0,0,0,453.3,70.29Zm-2.46-9.06h2.84c1.76,0,2.58.69,2.58,2.11a1.89,1.89,0,0,1-1.94,2l2.11,3.25H455.2l-2-3.17H452v3.17h-1.14ZM452,64.5h1.2c1,0,1.94,0,1.94-1.21,0-1-.85-1.13-1.62-1.13H452Z"/>
    </g>
  </g>
</svg>
