<?xml version="1.0" encoding="UTF-8" standalone="no"?>
<svg width="100" height="99" viewBox="0 0 100 99" xmlns="http://www.w3.org/2000/svg" xmlns:xlink="http://www.w3.org/1999/xlink"><title>lre-logo</title><defs><path id="a" d="M0 98.785h99.581V.532H0z"/></defs><g fill="none" fill-rule="evenodd"><mask id="b" fill="#fff"><use xlink:href="#a"/></mask><path d="M99.581 49.685C99.581 22.538 77.29.532 49.791.532 22.29.532 0 22.538 0 49.685 0 76.83 22.292 98.837 49.79 98.837c27.5 0 49.791-22.006 49.791-49.152" fill="#CD1421" mask="url(#b)"/><path fill="#FFF" d="M16.14 54.292V35.427l-4.415.002.011 14.515 4.404 4.348m8.677-18.863l-.021-.023v18.886l4.382-.008.021.02V35.43h-4.382m-8.215 18.856h6.882v-4.348h-6.882zm50.238.006V35.447l-4.4-.005-.004 14.502 4.403 4.348m9.229-18.878l-.001 4.36-.005.003.003 3.892-.003 6.275 4.405 4.347V35.42l-4.4-.007M67.31 54.286h6.884v-4.348H67.31zm13.636 0h6.91v-4.348h-6.91zm0-14.532h6.91v-4.348h-6.91zm0 7.267h6.91v-4.348h-6.91zM35.699 35.429v18.87l4.4-.004.003-14.518-4.403-4.348m-5.141 4.357h4.676v-4.349h-4.676zm14.686.001h-4.486l-4.382-4.35h8.868v4.35m6.343-4.358v18.87l4.4-.004.003-14.518-4.403-4.348m-5.143 4.357h4.678v-4.349h-4.678zm14.687.001h-4.487l-4.382-4.35h8.87v4.35M17.459 63.963v-4.362h2.06a.184.184 0 0 0 .041.007c.296.043.443.2.443.47v.574c0 .23-.158.368-.476.412h-1.379c-.335 0-.542.118-.622.353-.05.163-.034.29.051.375l2.189 2.171h1.133l-2.192-2.164h1.021c.301 0 .565-.1.791-.302.227-.2.342-.433.342-.695v-.874c0-.363-.168-.653-.501-.867a1.394 1.394 0 0 0-.755-.196h-3.003v5.098h.857zm8.228 0h2.3v-.736h-2.07c-.267 0-.442-.01-.527-.03a.561.561 0 0 1-.381-.285.287.287 0 0 1-.043-.146v-1.003h3.037v-.736h-3.037v-.866c0-.14.05-.269.153-.386a.496.496 0 0 1 .39-.174h2.503v-.736H25.84c-.56 0-.979.09-1.255.269-.317.204-.475.54-.475 1.006v2.454c0 .912.525 1.369 1.577 1.369zm5.944 0l.463-1.064h2.571l.46 1.064h.911l-1.96-4.618c-.152-.355-.392-.531-.72-.531-.288 0-.509.174-.661.524l-1.977 4.625h.913zm.768-1.799l.964-2.318.99 2.318H32.4zm6.887 1.478c.265.213.647.321 1.144.321h2.232v-.736h-2.249c-.242 0-.42-.042-.53-.124-.11-.082-.165-.226-.165-.43v-3.808h-.856v3.816c0 .422.14.742.424.961zm12.665.321h2.3v-.736h-2.07c-.268 0-.442-.01-.527-.03a.563.563 0 0 1-.382-.285.294.294 0 0 1-.042-.146v-1.003h3.037v-.736H51.23v-.866c0-.14.05-.269.153-.386a.494.494 0 0 1 .39-.174h2.502v-.736h-2.171c-.56 0-.979.09-1.256.269-.317.204-.475.54-.475 1.006v2.454c0 .912.526 1.369 1.578 1.369zm7.926 0c.288 0 .55-.071.787-.212.367-.218.55-.522.55-.91v-.801c0-.345-.203-.616-.61-.815a1.624 1.624 0 0 0-.73-.168H58.83c-.374 0-.56-.178-.56-.532v-.502c0-.238.147-.376.44-.416a.182.182 0 0 0 .044-.006h2.494v-.736h-2.41c-.306 0-.537.031-.695.095-.487.194-.731.558-.731 1.091v.649c0 .315.148.571.444.764.277.18.604.27.978.27h.893c.046 0 .076.003.094.008.357.038.536.177.536.416v.652c0 .107-.05.201-.149.282-.1.08-.21.124-.335.135h-2.461v.736h2.464zm5.426-4.362v4.362h.857v-4.362h1.28v-.736h-3.417v.736h1.28zm5.41 4.362l.463-1.064h2.57l.46 1.064h.912l-1.96-4.618c-.152-.355-.392-.531-.72-.531-.288 0-.51.174-.662.524l-1.977 4.625h.913zm.768-1.799l.964-2.318.99 2.318H71.48zm7.277-2.563v4.362h.856v-4.362h1.281v-.736h-3.42v.736h1.283zm6.667 4.362h2.3v-.736h-2.071a2.87 2.87 0 0 1-.526-.03.561.561 0 0 1-.381-.285.294.294 0 0 1-.043-.146v-1.003h3.037v-.736h-3.037v-.866c0-.14.051-.269.152-.386a.496.496 0 0 1 .39-.174h2.503v-.736h-2.172c-.56 0-.978.09-1.255.269-.316.204-.475.54-.475 1.006v2.454c0 .912.526 1.369 1.578 1.369z"/></g></svg>