<?xml version="1.0" encoding="utf-8"?>
<!-- Generator: Adobe Illustrator 19.2.1, SVG Export Plug-In . SVG Version: 6.00 Build 0)  -->
<svg version="1.1" id="layer" xmlns="http://www.w3.org/2000/svg" xmlns:xlink="http://www.w3.org/1999/xlink" x="0px" y="0px"
	 viewBox="0 0 652 652" style="enable-background:new 0 0 652 652;" xml:space="preserve">
<style type="text/css">
	.st0{fill:#FFFFFF;}
	.st1{fill:#FDD100;}
	.st2{fill:#E6001F;}
	.st3{fill:#F49C00;}
</style>
<g>
	<g>
		<path class="st0" d="M154.4,365.2c3.5-0.3,6.3-3.2,6.3-6.8v-7.7H134l0-74.7c0-3.6-2.9-6.6-6.5-6.8h-10.1v89.7
			c0.2,3.5,3.2,6.3,6.8,6.3h1.5l0,0H154.4z"/>
		<path class="st1" d="M77.4,248.7H47.7c-10.3,0-21.6,8.4-21.6,18.7v138.4h32.5V267.4C58.7,257.1,67,248.7,77.4,248.7"/>
		<path d="M607.4,405.8c10.3,0,18.7-8.4,18.7-18.7V248.7H212.2v157.1H607.4z"/>
		<path class="st2" d="M109.9,248.7c-10.3,0-18.7,8.4-18.7,18.7v138.4h121.1V248.7H109.9z"/>
		<path class="st3" d="M109.9,248.7H77.4c-10.3,0-18.7,8.4-18.7,18.7v138.4h32.5V267.4C91.2,257.1,99.6,248.7,109.9,248.7"/>
		<path class="st0" d="M189.4,275.6c-0.3-3.5-3.2-6.3-6.8-6.3h-9.8v1.8v89.1c0,11.3-5.8,17.9-16,18.2h-5.8V393h5.8
			c15.7-0.3,32.7-10.5,32.7-32l0-35.4L189.4,275.6z"/>
		<path class="st0" d="M154.4,365.2c3.5-0.3,6.3-3.2,6.3-6.8v-7.7H134l0-74.7c0-3.6-2.9-6.6-6.5-6.8h-10.1v89.7
			c0.2,3.5,3.2,6.3,6.8,6.3h1.5l0,0H154.4z"/>
		<path class="st0" d="M366.9,330.4c0-12-1.3-20.3-7.8-27.1c-3-3.2-9.7-8.4-21.4-8.4c-11,0-17.7,4.6-21.3,8.4
			c-6.5,6.8-7.8,15.1-7.8,27.1c0,12.1,1.3,20.4,7.8,27.2c3.6,3.8,10.3,8.4,21.3,8.4c11.8,0,18.5-5.3,21.4-8.4
			C365.7,350.8,366.9,342.5,366.9,330.4 M347.1,348.9c-2.4,2.4-5.5,3.6-9.4,3.6c-3.8,0-6.9-1.2-9.2-3.6c-4.2-4.2-4.6-11.1-4.6-18.5
			c0-7.3,0.4-14.2,4.6-18.4c2.4-2.4,5.4-3.6,9.2-3.6c3.9,0,7,1.2,9.4,3.6c4.2,4.2,4.5,11.1,4.5,18.4
			C351.6,337.8,351.3,344.7,347.1,348.9"/>
		<path class="st0" d="M426,303.4c-3.7-3.8-10.3-8.4-21.5-8.4c-11,0-17.7,4.6-21.3,8.4c-6.5,6.8-7.8,15.1-7.8,27.1
			c0,12,1.3,20.3,7.8,27.2c3.6,3.8,10.2,8.4,21.3,8.4c11.2,0,17.8-4.6,21.5-8.4c6.5-6.8,7.8-15.1,7.8-27.2
			C433.8,318.5,432.5,310.2,426,303.4 M413.9,348.9c-2.3,2.4-5.5,3.6-9.4,3.6c-3.8,0-6.8-1.2-9.2-3.6c-4.2-4.2-4.5-11.1-4.5-18.5
			c0-7.3,0.3-14.2,4.5-18.4c2.4-2.4,5.4-3.6,9.2-3.6c3.9,0,7.1,1.2,9.4,3.6c4.2,4.2,4.6,11.1,4.6,18.4
			C418.4,337.8,418.1,344.7,413.9,348.9"/>
		<path class="st0" d="M485.3,365.2h17.8l-26.9-41.8l24.5-27.6h-18.2l-25.9,31l0-50.6c0-3.7-2.9-6.7-6.6-6.8h-8.7v89.1
			c0,3.7,3,6.7,6.7,6.8h8.6v-20.6l9.8-11L485.3,365.2z"/>
		<path class="st0" d="M291.2,365.2h1.5v0h8.3l0-89c0-3.7-2.9-6.7-6.6-6.8h-9.9v40.3h-32.7v-33.4c0-3.7-2.9-6.7-6.6-6.8h-9.9v89.2
			c0.1,3.7,3.1,6.6,6.8,6.6h1.5l0,0h8.3V324h32.7v34.6C284.5,362.3,287.5,365.2,291.2,365.2"/>
		<path class="st0" d="M595.8,310.7h7.5v-14.9h-7.5c-14.2,0-25.7,11.5-25.7,25.7v43.8h8.2c3.7-0.1,6.7-3.1,6.7-6.8v-2.7v-34.2
			C585.1,315.5,589.9,310.7,595.8,310.7"/>
		<path class="st0" d="M562,328.1c0-20.1-11.8-33.1-30.1-33.1c-18.5,0-30.1,13.6-30.1,35.5c0,23.6,10.8,35.6,32,35.6
			c12.4,0,19-3.8,25.5-10l-9-8.8c-4.2,4-8.3,6.2-16.3,6.2c-10.4,0-17.1-6.8-17.1-17.4v-1.3h43.7l1.4-1.4V328.1z M516.8,325.1l0-1.4
			c0.1-3.4,0.6-5.5,1.8-8.2c2.4-5.3,7.2-8.3,13.3-8.3c6,0,10.9,3,13.2,8.2c1.2,2.8,1.6,4.9,1.8,8.2l0,1.4H516.8z"/>
	</g>
</g>
</svg>
