<svg width="27" height="27" viewBox="0 0 27 27" fill="none" xmlns="http://www.w3.org/2000/svg">
<path d="M25.0714 0H1.92254C0.86183 0 0 0.873884 0 1.94665V25.0533C0 26.1261 0.86183 27 1.92254 27H25.0714C26.1321 27 27 26.1261 27 25.0533V1.94665C27 0.873884 26.1321 0 25.0714 0ZM8.16027 23.1429H4.15848V10.2576H8.1663V23.1429H8.16027ZM6.15937 8.49777C4.87567 8.49777 3.83906 7.45513 3.83906 6.17746C3.83906 4.89978 4.87567 3.85714 6.15937 3.85714C7.43705 3.85714 8.47969 4.89978 8.47969 6.17746C8.47969 7.46116 7.44308 8.49777 6.15937 8.49777ZM23.1609 23.1429H19.1592V16.875C19.1592 15.3804 19.129 13.4578 17.0799 13.4578C14.9946 13.4578 14.6752 15.085 14.6752 16.7665V23.1429H10.6734V10.2576H14.5125V12.0174H14.5667C15.1031 11.0049 16.4109 9.93817 18.3576 9.93817C22.4076 9.93817 23.1609 12.608 23.1609 16.0795V23.1429Z" fill="#BB8C56"/>
</svg>
