<?xml version="1.0" standalone="no"?>
<!DOCTYPE svg PUBLIC "-//W3C//DTD SVG 20010904//EN"
 "http://www.w3.org/TR/2001/REC-SVG-20010904/DTD/svg10.dtd">
<svg version="1.0" xmlns="http://www.w3.org/2000/svg"
 width="70.000000pt" height="70.000000pt" viewBox="0 0 70.000000 70.000000"
 preserveAspectRatio="xMidYMid meet">
<metadata>
Created by potrace 1.10, written by Peter Selinger 2001-2011
</metadata>
<g transform="translate(0.000000,70.000000) scale(0.100000,-0.100000)"
fill="#000000" stroke="none">
<path d="M202 684 c-19 -13 -23 -23 -20 -57 2 -33 9 -44 31 -57 24 -13 30 -13
55 0 21 12 28 24 30 56 3 44 -7 58 -48 69 -16 3 -34 0 -48 -11z m66 -16 c17
-17 15 -63 -3 -78 -8 -7 -25 -10 -40 -6 -20 5 -25 12 -25 39 0 36 15 57 40 57
9 0 21 -5 28 -12z"/>
<path d="M153 530 c-34 -14 -43 -42 -43 -140 0 -89 1 -91 28 -107 26 -15 27
-17 25 -102 -1 -79 -3 -86 -22 -89 -18 -3 -21 -11 -21 -46 l0 -43 235 0 235 0
0 214 0 213 -80 0 -80 0 0 -125 0 -125 -30 0 c-29 0 -30 1 -30 51 0 44 -5 58
-35 95 -27 33 -35 51 -35 83 0 38 2 41 28 41 54 0 103 20 113 46 5 14 7 30 3
35 -7 11 -262 11 -291 -1z m277 -19 c0 -18 -30 -32 -86 -41 -33 -6 -60 -10
-61 -10 -2 0 -3 -21 -3 -48 0 -41 6 -54 40 -96 33 -40 40 -56 40 -92 0 -40 -2
-44 -25 -44 -22 0 -25 4 -25 38 0 31 -6 43 -31 61 -17 13 -33 20 -36 17 -3 -2
-8 -49 -12 -103 -6 -92 -7 -98 -28 -101 l-23 -3 0 186 c0 135 -3 184 -11 179
-8 -4 -10 -33 -7 -85 5 -81 4 -85 -22 -69 -11 7 -15 30 -15 96 0 120 5 124
176 124 71 0 129 -4 129 -9z m150 -297 l0 -194 -65 0 -65 0 0 198 0 197 65 -3
65 -4 0 -194z m-298 39 c19 -17 25 -73 8 -73 -5 0 -10 -20 -10 -45 0 -39 -3
-45 -21 -45 -19 0 -21 4 -15 38 3 20 6 61 6 90 0 56 4 61 32 35z m148 -160 l0
-73 -65 0 -65 0 0 74 0 73 65 -1 65 -1 0 -72z m-150 -43 l0 -30 -70 0 -70 0 0
30 0 30 70 0 70 0 0 -30z"/>
</g>
</svg>
